<svg width="625" height="536" viewBox="0 0 625 536" fill="none" xmlns="http://www.w3.org/2000/svg">
<path d="M306.511 535.346C473.554 535.346 608.97 457.163 608.97 360.718C608.97 264.273 473.554 186.089 306.511 186.089C139.467 186.089 4.05164 264.273 4.05164 360.718C4.05164 457.163 139.467 535.346 306.511 535.346Z" fill="#F5F5F5"/>
<path d="M54.4524 424.28L74.6019 435.836C75.6541 436.374 76.819 436.655 78.0009 436.655C79.1828 436.655 80.3477 436.374 81.3999 435.836L240.284 344.062C242.147 342.988 242.147 341.248 240.284 340.188L219.89 328.726C218.836 328.193 217.672 327.916 216.491 327.916C215.31 327.916 214.146 328.193 213.092 328.726L54.4524 420.391C52.5898 421.465 52.5898 423.205 54.4524 424.28Z" fill="#FFBF19"/>
<path d="M556.802 424.28L536.652 435.837C535.599 436.373 534.435 436.652 533.253 436.652C532.072 436.652 530.907 436.373 529.854 435.837L370.97 344.063C369.107 342.989 369.121 341.248 370.97 340.188L391.364 328.726C392.418 328.193 393.582 327.916 394.763 327.916C395.944 327.916 397.108 328.193 398.162 328.726L556.802 420.364C558.664 421.465 558.664 423.206 556.802 424.28Z" fill="#FFBF19"/>
<path d="M540.867 367.122C540.867 367.122 541.846 346.524 550.983 329.977C560.119 313.431 573.43 302.622 586.401 300.732C599.371 298.842 610.697 310.14 597.277 319.304C583.858 328.468 559.63 338.488 550.262 370.058L540.867 367.122Z" fill="#4F46E5"/>
<g opacity="0.2">
<path d="M540.867 367.122C540.867 367.122 541.846 346.524 550.983 329.977C560.119 313.431 573.43 302.622 586.401 300.732C599.371 298.842 610.697 310.14 597.277 319.304C583.858 328.468 559.63 338.488 550.262 370.058L540.867 367.122Z" fill="black"/>
</g>
<path d="M544.348 361.561H544.198C544.111 361.532 544.031 361.486 543.962 361.425C543.893 361.365 543.837 361.292 543.796 361.209C543.756 361.127 543.732 361.038 543.726 360.947C543.721 360.855 543.733 360.763 543.763 360.677C555.293 325.884 580.554 310.018 592.301 306.483C592.481 306.429 592.676 306.448 592.842 306.538C593.007 306.627 593.131 306.778 593.185 306.959C593.239 307.139 593.219 307.333 593.13 307.499C593.041 307.665 592.889 307.788 592.709 307.842C581.193 311.309 556.435 326.877 545.123 361.153C545.056 361.296 544.944 361.414 544.804 361.488C544.664 361.562 544.504 361.587 544.348 361.561V361.561Z" fill="white"/>
<path d="M615.754 360.881C614.694 363.79 611.676 365.476 608.956 366.822C606.237 368.168 603.124 369.61 601.737 372.383C599.018 377.998 604.606 385.259 601.601 390.738C600.884 391.843 599.951 392.791 598.857 393.525C597.763 394.259 596.532 394.763 595.238 395.007C593.104 395.452 590.948 395.787 588.78 396.013C587.747 396.075 586.712 396.075 585.68 396.013C582.675 395.768 579.426 395.85 576.802 397.55C572.723 400.269 571.703 405.707 569.364 410.112C567.917 412.687 565.927 414.917 563.532 416.647C561.138 418.377 558.396 419.567 555.496 420.133C553.579 420.513 550.058 421.098 547.978 420.133C547.83 420.07 547.689 419.992 547.556 419.902V419.902C547.271 419.616 546.904 419.249 546.741 419.045C546.577 418.841 546.741 418.963 546.659 418.923C545.707 416.203 546.768 413.172 546.659 410.276C546.659 410.085 546.659 409.922 546.659 409.745C546.306 406.387 545.993 403.056 545.694 399.698C545.132 393.534 544.679 387.357 544.334 381.166C544.117 377.155 543.342 372.791 544.783 368.93C546.401 364.647 551.064 364.253 552.573 360.052C553.172 358.379 553.43 356.612 554.001 354.926C554.905 352.444 556.473 350.259 558.536 348.609C560.598 346.959 563.074 345.909 565.694 345.572C573.851 344.62 581.587 350.738 589.704 349.65C591.812 349.338 593.783 348.563 595.877 348.046C602.417 346.374 610.18 347.747 614.272 353.104C615.126 354.186 615.706 355.457 615.964 356.811C616.222 358.165 616.15 359.561 615.754 360.881V360.881Z" fill="#4F46E5"/>
<path d="M545.055 406.048H544.987C544.806 406.011 544.648 405.905 544.546 405.752C544.444 405.599 544.407 405.412 544.443 405.232C552.94 362.159 597.141 353.104 607.624 353.172C607.808 353.179 607.982 353.256 608.111 353.388C608.24 353.519 608.314 353.695 608.317 353.879C608.317 353.971 608.299 354.063 608.263 354.148C608.228 354.233 608.175 354.31 608.11 354.374C608.044 354.439 607.966 354.49 607.88 354.524C607.794 354.558 607.703 354.574 607.61 354.573C597.359 354.505 554.123 363.356 545.816 405.504C545.78 405.673 545.682 405.823 545.541 405.923C545.4 406.024 545.227 406.068 545.055 406.048Z" fill="white"/>
<path d="M593.185 381.343C593.044 381.322 592.912 381.261 592.804 381.166C588.452 377.868 583.426 375.571 578.084 374.438C572.742 373.305 567.216 373.365 561.9 374.613C561.811 374.633 561.719 374.635 561.629 374.619C561.539 374.603 561.453 374.569 561.376 374.52C561.299 374.471 561.232 374.407 561.18 374.332C561.128 374.257 561.091 374.172 561.071 374.083C561.051 373.994 561.049 373.901 561.065 373.811C561.081 373.721 561.115 373.635 561.164 373.558C561.214 373.481 561.277 373.415 561.352 373.363C561.427 373.31 561.512 373.273 561.601 373.254C567.134 371.963 572.883 371.909 578.439 373.096C583.995 374.283 589.22 376.681 593.742 380.12C593.852 380.22 593.928 380.354 593.957 380.5C593.987 380.646 593.97 380.798 593.908 380.934C593.846 381.07 593.743 381.182 593.613 381.256C593.483 381.33 593.333 381.36 593.185 381.343V381.343Z" fill="white"/>
<path d="M68.4564 362.526C67.7314 353.662 65.6876 344.955 62.3925 336.694C56.9541 323.397 46.6482 309.991 34.7244 307.462C22.8006 304.933 17.7293 312.968 20.2445 320.854C22.4199 327.652 31.2846 333.281 38.0147 339.209C44.7448 345.137 57.3212 359.453 60.8154 373.294L67.5454 374.028L68.4564 362.526Z" fill="#4F46E5"/>
<g opacity="0.15">
<path d="M68.4564 362.526C67.7314 353.662 65.6876 344.955 62.3925 336.694C56.9541 323.397 46.6482 309.991 34.7244 307.462C22.8006 304.933 17.7293 312.968 20.2445 320.854C22.4199 327.652 31.2846 333.281 38.0147 339.209C44.7448 345.137 57.3212 359.453 60.8154 373.294L67.5454 374.028L68.4564 362.526Z" fill="black"/>
</g>
<path d="M63.8609 368.767C63.6682 368.764 63.4839 368.687 63.3451 368.554C63.2063 368.42 63.1234 368.239 63.1131 368.046C61.8623 333.254 27.8448 313.811 27.4913 313.662C27.311 313.564 27.1768 313.399 27.1181 313.203C27.0595 313.007 27.0812 312.795 27.1786 312.615C27.276 312.434 27.441 312.3 27.6373 312.242C27.8336 312.183 28.0452 312.205 28.2255 312.302C28.579 312.506 63.3307 332.37 64.6223 368.046C64.626 368.246 64.5511 368.439 64.4138 368.584C64.2765 368.729 64.0877 368.814 63.8881 368.821L63.8609 368.767Z" fill="white"/>
<path d="M64.2553 416.312C64.2553 416.312 57.294 420.704 46.4307 418.841C42.9194 418.382 39.6444 416.82 37.0766 414.382C34.2758 411.486 33.8271 408.576 32.9978 404.701C32.7826 403.085 32.2265 401.532 31.3662 400.146C29.0277 396.938 24.3778 396.992 20.4894 396.163C15.0509 394.98 9.93876 391.023 8.34802 385.639C6.75727 380.255 9.34053 373.675 14.5478 371.554L8.15767 367.475C6.17977 366.313 4.3531 364.911 2.71922 363.301C1.08089 361.656 0.111845 359.461 0 357.142C0.103189 355.442 0.685201 353.806 1.67881 352.422C2.67242 351.039 4.03709 349.965 5.6152 349.324C8.80102 348.102 12.255 347.75 15.6219 348.304C19.0264 348.711 22.3741 349.5 25.6015 350.657C26.4818 351.057 27.4355 351.27 28.4023 351.282C29.683 351.066 30.8813 350.507 31.8693 349.664C39.184 344.837 51.0942 345.205 54.9827 354.3C55.5673 355.66 55.9072 357.02 56.5191 358.379C58.8032 363.274 65.1934 361.805 69.313 364.09C70.6172 364.907 71.7249 366.002 72.5569 367.297C73.3889 368.592 73.9247 370.055 74.126 371.581C74.9418 376.435 73.5958 381.955 72.7664 386.754C71.9371 391.554 70.7406 396 69.4354 400.541C68.3749 404.293 67.2056 408.005 65.9548 411.69C65.6013 412.519 65.0166 415.823 64.2553 416.312Z" fill="#4F46E5"/>
<path d="M68.5788 405.096C64.927 395.067 58.9379 386.053 51.1078 378.801C51.0271 378.63 50.8869 378.495 50.7135 378.42C48.4571 376.301 46.0927 374.3 43.6299 372.424C42.7065 365.978 43.5378 359.403 46.0364 353.39C46.0784 353.3 46.1024 353.204 46.107 353.105C46.1116 353.006 46.0967 352.908 46.0633 352.815C46.0298 352.722 45.9784 352.637 45.912 352.564C45.8456 352.491 45.7654 352.432 45.6761 352.39C45.5869 352.348 45.4902 352.324 45.3917 352.32C45.2931 352.315 45.1947 352.33 45.1019 352.363C45.0091 352.397 44.9238 352.448 44.8508 352.515C44.7779 352.581 44.7188 352.661 44.6768 352.751C42.2231 358.562 41.2874 364.901 41.9576 371.173C31.9424 363.955 20.8336 358.392 9.055 354.695C8.96035 354.668 8.86134 354.661 8.76383 354.673C8.66631 354.686 8.57229 354.718 8.48733 354.767C8.40238 354.817 8.32822 354.883 8.26925 354.961C8.21028 355.04 8.16771 355.13 8.14406 355.225C8.11729 355.319 8.10946 355.417 8.12103 355.514C8.13259 355.61 8.16332 355.704 8.21141 355.789C8.2595 355.874 8.324 355.948 8.40114 356.008C8.47829 356.067 8.56652 356.111 8.66071 356.136C8.97342 356.231 30.197 362.241 47.7088 377.686C36.9678 375.796 24.1331 380.99 23.5485 381.234C23.3871 381.3 23.2534 381.419 23.1706 381.572C23.0878 381.725 23.061 381.902 23.0948 382.073C23.1287 382.244 23.221 382.397 23.3559 382.507C23.4909 382.617 23.6599 382.677 23.834 382.676C23.9282 382.695 24.0253 382.695 24.1195 382.676C24.2691 382.608 39.3336 376.516 49.9521 379.82C57.6672 386.936 63.5689 395.793 67.1648 405.653C67.2174 405.799 67.3133 405.925 67.4396 406.015C67.566 406.105 67.7168 406.154 67.8718 406.156H68.1165C68.2217 406.124 68.3186 406.069 68.4006 405.996C68.4826 405.923 68.5479 405.833 68.5918 405.732C68.6357 405.631 68.6573 405.522 68.655 405.412C68.6528 405.303 68.6268 405.194 68.5788 405.096V405.096Z" fill="white"/>
<path d="M44.4865 145.382C42.6168 147.505 40.199 149.071 37.4981 149.91L37.2126 149.978H36.9951L36.5192 150.06H35.9753H35.6218C35.5683 150.073 35.5122 150.073 35.4587 150.06C34.3742 150.064 33.3131 149.744 32.4119 149.141C31.5106 148.537 30.8103 147.678 30.4009 146.674C30.0103 145.78 29.7626 144.831 29.6667 143.86C30.0882 143.669 30.5097 143.438 30.9448 143.194C34.0813 141.148 36.691 138.392 38.5621 135.148C40.4331 131.904 41.5126 128.265 41.7129 124.526C41.7129 124.009 41.7129 123.52 41.7129 123.071C42.9007 122.506 44.2045 122.226 45.5198 122.256H45.751H45.9413C46.0086 122.242 46.0779 122.242 46.1452 122.256C47.0785 122.396 47.9591 122.777 48.7005 123.361C49.4418 123.945 50.0184 124.712 50.3736 125.587C52.5898 130.794 49.9793 139.591 44.4865 145.382Z" fill="#4F46E5"/>
<path d="M64.4047 129.04C64.2985 128.989 64.1826 128.961 64.0648 128.958L59.4693 128.7C59.3689 128.704 59.2687 128.687 59.1748 128.651C59.0809 128.615 58.9952 128.561 58.9229 128.491C58.8506 128.421 58.793 128.337 58.7538 128.245C58.7145 128.152 58.6943 128.053 58.6944 127.952C58.7623 127.218 58.7895 126.498 58.8031 125.804C58.8089 125.041 58.7726 124.279 58.6944 123.52C58.7087 123.022 58.8907 122.543 59.211 122.16L64.3367 115.933C64.4928 115.764 64.6033 115.558 64.658 115.335C64.7127 115.111 64.7097 114.877 64.6495 114.655L62.2157 109.217C62.1846 109.148 62.1322 109.091 62.0662 109.054V109.054C61.9257 109.007 61.774 109.005 61.6325 109.049C61.491 109.093 61.3668 109.18 61.2776 109.298L55.8392 114.302C55.6932 114.468 55.4947 114.578 55.277 114.615C55.0593 114.652 54.8354 114.614 54.6427 114.506C53.9378 113.935 53.149 113.476 52.3042 113.146C52.1156 113.076 51.957 112.943 51.8554 112.77C51.7538 112.596 51.7154 112.393 51.7467 112.194L53.4327 104.513C53.4587 104.409 53.4501 104.3 53.4084 104.202C53.3667 104.104 53.294 104.022 53.2015 103.969C53.0446 103.896 52.8705 103.867 52.6985 103.887L47.26 104.417C47.0134 104.448 46.7778 104.538 46.574 104.68C46.3702 104.822 46.2043 105.012 46.0908 105.233L43.1812 113.037C42.9287 113.534 42.517 113.931 42.0119 114.166C40.8443 114.713 39.7253 115.359 38.6673 116.097C38.205 116.396 37.702 116.423 37.5116 116.097L34.7924 111.895C34.602 111.596 34.1534 111.664 33.7999 112.031L27.9127 118.258C27.7434 118.425 27.6139 118.628 27.5338 118.851C27.4538 119.075 27.4253 119.314 27.4505 119.55L29.0956 125.097C29.1646 125.572 29.0582 126.055 28.7965 126.457C27.7995 127.966 26.8916 129.532 26.0773 131.147C25.7895 131.62 25.3325 131.965 24.7992 132.113L19.7551 133.323C19.5034 133.381 19.2688 133.497 19.0704 133.662C18.872 133.828 18.7153 134.037 18.613 134.275L16.0705 142.813C16.0437 142.906 16.04 143.004 16.0596 143.099C16.0793 143.194 16.1217 143.283 16.1832 143.358C16.2447 143.433 16.3236 143.492 16.4129 143.529C16.5022 143.567 16.5993 143.582 16.696 143.574L21.305 143.846C21.406 143.841 21.507 143.856 21.6018 143.891C21.6965 143.926 21.783 143.981 21.8558 144.051C21.9285 144.121 21.986 144.206 22.0246 144.299C22.0632 144.392 22.082 144.493 22.08 144.594C21.951 146.069 21.951 147.552 22.08 149.026C22.0765 149.522 21.9039 150.002 21.5906 150.386L16.4512 156.613C16.2952 156.782 16.1847 156.988 16.13 157.212C16.0753 157.435 16.0782 157.669 16.1385 157.891L18.5722 163.329C18.6072 163.399 18.6585 163.46 18.7218 163.506C18.7837 163.526 18.8502 163.526 18.9121 163.506C19.1403 163.49 19.3539 163.388 19.5103 163.221L24.9488 158.204C25.0965 158.04 25.2958 157.932 25.5134 157.897C25.7311 157.863 25.9541 157.904 26.1453 158.013C26.8484 158.587 27.6376 159.046 28.4838 159.373C28.675 159.443 28.8355 159.578 28.9374 159.755C29.0392 159.931 29.076 160.138 29.0412 160.338L27.3417 168.02C27.322 168.12 27.3336 168.223 27.375 168.315C27.4164 168.408 27.4856 168.485 27.5728 168.537V168.537C27.726 168.622 27.9023 168.655 28.0759 168.632L33.5143 168.102C33.761 168.071 33.9965 167.981 34.2004 167.839C34.4042 167.697 34.5701 167.507 34.6836 167.286L37.5932 159.482C37.8483 158.984 38.2588 158.583 38.7624 158.34C39.3498 158.073 39.9217 157.773 40.4756 157.442C41.0058 157.13 41.5497 156.79 42.0935 156.423C42.6373 156.056 43.0452 156.096 43.2356 156.423L45.9548 160.61C45.9895 160.661 46.0362 160.703 46.0908 160.733C46.3083 160.882 46.6618 160.733 46.9473 160.474L52.8344 154.261C53.0149 154.088 53.1503 153.874 53.2285 153.637C53.3068 153.4 53.3255 153.147 53.2831 152.901L51.6516 147.34C51.5703 146.866 51.6777 146.378 51.9507 145.981C52.9557 144.472 53.8639 142.901 54.6699 141.277C54.8215 141.035 55.0199 140.827 55.2534 140.663C55.4869 140.5 55.7508 140.385 56.0295 140.325L61.0601 139.115C61.3118 139.057 61.5463 138.941 61.7448 138.775C61.9432 138.61 62.0999 138.4 62.2022 138.163L64.7446 129.625C64.7555 129.504 64.7287 129.383 64.6678 129.278C64.6069 129.173 64.515 129.09 64.4047 129.04ZM37.5116 149.91L37.2125 149.978H36.995L36.5191 150.06H35.9616H35.4586C34.3725 150.063 33.3104 149.741 32.4089 149.135C31.5075 148.529 30.8081 147.667 30.4008 146.661C30.0087 145.767 29.7609 144.817 29.6666 143.846C29.6116 143.327 29.5844 142.805 29.5851 142.283C29.9143 136.568 32.2719 131.159 36.2336 127.028C37.4306 125.744 38.8039 124.636 40.3124 123.738C40.7515 123.48 41.2055 123.248 41.672 123.044C42.8628 122.489 44.1653 122.214 45.4789 122.242H45.7101H45.9004H46.1179C47.0488 122.385 47.9265 122.767 48.6654 123.351C49.4042 123.935 49.9787 124.7 50.3327 125.573C52.6033 130.604 49.9928 139.387 44.5 145.192C42.6576 147.387 40.2364 149.022 37.5116 149.91Z" fill="#F5F5F5"/>
<path d="M43.1269 113.078C42.8584 113.548 42.456 113.926 41.9712 114.166C40.816 114.712 39.7105 115.358 38.6673 116.097C38.2051 116.396 37.702 116.423 37.5117 116.097L34.7924 111.909C34.761 111.855 34.7135 111.812 34.6565 111.787V111.787L29.5035 108.809C30.0574 108.478 30.6293 108.179 31.2167 107.912L31.407 107.803C31.6101 107.676 31.7972 107.526 31.9644 107.354L32.1684 107.137C32.2138 107.089 32.2506 107.034 32.2771 106.974L32.3587 106.824L43.1269 113.078Z" fill="#EBEBEB"/>
<path d="M29.1501 125.301C29.1592 125.715 29.0456 126.121 28.8238 126.47C27.8292 127.981 26.9213 129.547 26.1046 131.161C26.0373 131.296 25.9502 131.419 25.8463 131.528L14.9694 125.26C15.027 125.208 15.0773 125.149 15.1189 125.084C15.173 125.027 15.2188 124.963 15.2549 124.893C16.0609 123.269 16.9691 121.698 17.9741 120.189C18.0277 120.112 18.0733 120.03 18.1101 119.944C18.1101 119.944 18.1101 119.836 18.1101 119.781C18.116 119.75 18.116 119.717 18.1101 119.686C18.1101 119.686 18.1101 119.686 18.1101 119.686C18.1149 119.609 18.1149 119.532 18.1101 119.455C18.1298 119.338 18.1298 119.218 18.1101 119.101L29.1501 125.301Z" fill="#EBEBEB"/>
<path d="M29.422 108.795L23.7932 105.532C23.7193 105.488 23.6347 105.464 23.5485 105.464C23.4294 105.473 23.3134 105.507 23.2081 105.563C23.1027 105.619 23.0103 105.697 22.9366 105.791V105.791L19.4153 109.516L17.0495 112.004C16.8561 112.214 16.7121 112.465 16.6281 112.738L24.9081 117.497L27.4778 118.965C27.5652 118.713 27.7041 118.481 27.8856 118.286L27.9672 118.204L33.7728 112.058C33.8673 111.938 33.9943 111.847 34.1389 111.796C34.2835 111.746 34.4395 111.738 34.5885 111.773L29.422 108.795Z" fill="#F5F5F5"/>
<path d="M53.052 103.955C52.9097 103.882 52.7471 103.858 52.5897 103.887L47.1513 104.417C46.8208 104.456 46.5112 104.599 46.2675 104.825L35.3906 98.5711C35.6296 98.3355 35.9408 98.187 36.2744 98.1497L41.7128 97.6194C41.8952 97.5902 42.0822 97.6237 42.2431 97.7146L43.6843 98.5575L44.4049 98.9654L49.0003 101.685L50.1288 102.337L50.9582 102.813L53.052 103.955Z" fill="#F5F5F5"/>
<path d="M25.7783 131.583C25.4976 131.862 25.1519 132.068 24.7722 132.181L19.728 133.391C19.3601 133.479 19.0307 133.684 18.7899 133.975L7.91296 127.735C8.16007 127.429 8.49821 127.21 8.87829 127.109L13.9224 125.899C14.2992 125.805 14.6398 125.602 14.9014 125.315L25.7783 131.583Z" fill="#E6E6E6"/>
<path d="M21.9441 149.652C21.8542 149.921 21.721 150.173 21.5498 150.399L16.4105 156.626C16.2623 156.812 16.1515 157.024 16.0842 157.252L5.20728 150.984C5.26309 150.748 5.37502 150.529 5.53358 150.345L10.6729 144.118C10.844 143.902 10.9773 143.658 11.0672 143.397L21.9441 149.652Z" fill="#E6E6E6"/>
<path d="M8.03525 138.707L8.18481 138.802L7.99446 138.68L7.61377 138.462L8.03525 138.707Z" fill="#FFBF19"/>
<path d="M44.4865 145.382C42.6168 147.505 40.199 149.071 37.4981 149.91L37.2126 149.978H36.9951L36.5192 150.06H35.9753H35.6218C35.5683 150.073 35.5122 150.073 35.4587 150.06C34.3742 150.064 33.3131 149.744 32.4119 149.141C31.5106 148.537 30.8103 147.678 30.4009 146.674C30.0103 145.78 29.7626 144.831 29.6667 143.86C30.0882 143.669 30.5097 143.438 30.9448 143.194C34.0813 141.148 36.691 138.392 38.5621 135.148C40.4331 131.904 41.5126 128.265 41.7129 124.526C41.7129 124.009 41.7129 123.52 41.7129 123.071C42.9007 122.506 44.2045 122.226 45.5198 122.256H45.751H45.9413C46.0086 122.242 46.0779 122.242 46.1452 122.256C47.0785 122.396 47.9591 122.777 48.7005 123.361C49.4418 123.945 50.0184 124.712 50.3736 125.587C52.5898 130.794 49.9793 139.591 44.4865 145.382Z" fill="#FFBF19"/>
<path d="M29.15 125.301L18.2731 119.047C18.2863 118.98 18.2863 118.91 18.2731 118.843L16.628 113.296C16.5755 113.114 16.5755 112.92 16.628 112.738L24.908 117.497L27.4777 118.965C27.4199 119.165 27.4199 119.377 27.4777 119.577L29.1228 125.124C29.1395 125.182 29.1486 125.241 29.15 125.301V125.301Z" fill="#FFBF19"/>
<path d="M46.3355 104.825C46.2122 104.939 46.1148 105.078 46.05 105.233L43.1404 113.037L32.2635 106.769L35.2139 98.9517C35.2709 98.7964 35.3697 98.66 35.4994 98.5574L46.3355 104.825Z" fill="#FFBF19"/>
<path d="M61.9711 109.04C61.8347 109.011 61.6929 109.019 61.561 109.065C61.4291 109.11 61.3123 109.191 61.2233 109.298L55.7848 114.315C55.6352 114.48 55.4345 114.59 55.2151 114.627C54.9956 114.664 54.7701 114.626 54.5748 114.519C53.8699 113.948 53.0811 113.49 52.2362 113.16C52.0477 113.09 51.8891 112.957 51.7875 112.784C51.6858 112.61 51.6474 112.407 51.6788 112.208L53.3647 104.526C53.3931 104.423 53.3857 104.313 53.3438 104.214C53.3018 104.115 53.2278 104.034 53.1336 103.982V103.982L51.0806 102.786C51.1432 102.772 51.2082 102.772 51.2709 102.786L51.3933 102.868L61.9711 109.04Z" fill="#FFBF19"/>
<path d="M64.3776 129.026C64.2714 128.975 64.1555 128.947 64.0377 128.945L59.4422 128.686C59.3417 128.69 59.2416 128.673 59.1477 128.638C59.0538 128.602 58.9681 128.547 58.8958 128.477C58.8234 128.407 58.7659 128.324 58.7266 128.231C58.6874 128.139 58.6672 128.039 58.6672 127.939C58.7352 127.204 58.776 126.484 58.776 125.777L64.3776 129.026Z" fill="#FFBF19"/>
<path d="M15.078 125.083C15.0364 125.149 14.9861 125.208 14.9285 125.26V125.26C14.9852 125.208 15.0354 125.148 15.078 125.083V125.083Z" fill="#FFBF19"/>
<path d="M7.92647 127.68C7.85199 127.78 7.79244 127.89 7.74972 128.007L7.43701 129.067L5.77828 134.642L5.22084 136.545C5.18762 136.647 5.18762 136.756 5.22084 136.858C5.23514 136.92 5.25802 136.979 5.28882 137.035C5.33066 137.083 5.37611 137.129 5.42478 137.171H5.50636L6.36291 137.674L6.59405 137.796L7.27385 138.177L7.62735 138.394L8.04883 138.639L8.19839 138.734L8.64706 138.979L11.0944 140.338L16.2609 143.33C16.1573 143.263 16.0785 143.165 16.0367 143.049C15.9949 142.934 15.9924 142.808 16.0298 142.691L18.2731 135.335L18.5858 134.275C18.6328 134.146 18.7018 134.026 18.7898 133.921L7.92647 127.68Z" fill="#FFBF19"/>
<path d="M46.1044 160.746L40.462 157.415C40.9923 157.103 41.5361 156.763 42.08 156.396C42.6238 156.028 43.0317 156.069 43.222 156.396L45.9413 160.597C45.9796 160.662 46.0364 160.714 46.1044 160.746V160.746Z" fill="#FFBF19"/>
<path d="M29.15 160.338L27.4505 168.034C27.4308 168.133 27.4424 168.236 27.4838 168.329C27.5252 168.421 27.5943 168.499 27.6816 168.55L18.9801 163.52C19.2063 163.496 19.4175 163.395 19.5783 163.234L25.0168 158.231C25.1625 158.065 25.3599 157.953 25.5771 157.914C25.7943 157.874 26.0185 157.909 26.2132 158.013C26.9134 158.591 27.7033 159.05 28.5518 159.373C28.7522 159.433 28.9237 159.564 29.0339 159.742C29.1441 159.92 29.1854 160.132 29.15 160.338V160.338Z" fill="#FFBF19"/>
<path d="M22.0392 149.04C22.055 149.248 22.0224 149.458 21.944 149.652L11.0671 143.398C11.1394 143.197 11.1717 142.985 11.1623 142.772C11.1623 142.024 11.0671 141.263 11.0671 140.474L16.2337 143.466C16.3469 143.526 16.4726 143.558 16.6008 143.561L21.2098 143.819C21.3115 143.815 21.4128 143.832 21.5076 143.869C21.6024 143.906 21.6887 143.962 21.7612 144.033C21.8338 144.104 21.891 144.189 21.9295 144.284C21.9679 144.378 21.9867 144.479 21.9848 144.58C21.8723 146.066 21.8905 147.558 22.0392 149.04V149.04Z" fill="#FFBF19"/>
<path d="M18.6674 163.452L16.4649 162.174L16.0434 161.943L12.4948 159.876L11.5295 159.332L7.88571 157.211C7.853 157.196 7.82485 157.173 7.80413 157.143C7.77221 157.114 7.74874 157.076 7.73616 157.034L5.28886 151.596C5.24014 151.45 5.24014 151.293 5.28886 151.147C5.28886 151.147 5.28886 151.025 5.28886 150.957L16.1657 157.225C16.0898 157.431 16.0898 157.658 16.1657 157.864L18.5995 163.302C18.6121 163.356 18.6352 163.407 18.6674 163.452V163.452Z" fill="#FFBF19"/>
<path d="M79.918 19.3329C79.5619 19.9892 79.0042 20.5135 78.3272 20.8285C76.7423 21.5871 75.2194 22.469 73.7726 23.4661C73.1471 23.8876 72.4129 23.9284 72.1818 23.4661L68.4293 17.715C68.3825 17.6353 68.3108 17.5732 68.2253 17.5382L64.5 15.3629C65.2886 14.9142 66.0636 14.4927 66.8385 14.1392L67.1105 13.9897C67.3898 13.8198 67.6458 13.6141 67.8718 13.3778C67.9775 13.2837 68.0732 13.1789 68.1574 13.0651C68.2158 13.0039 68.2661 12.9353 68.3069 12.8612L68.4157 12.6572L79.918 19.3329Z" fill="#EBEBEB"/>
<path d="M60.6251 36.1241C60.6381 36.6873 60.4818 37.2414 60.1764 37.7148C58.81 39.7932 57.5661 41.9496 56.4511 44.173C56.3545 44.354 56.2307 44.5191 56.084 44.6624L44.5137 37.9868C44.5968 37.9153 44.67 37.833 44.7312 37.742C44.7962 37.6602 44.8552 37.5739 44.908 37.4837C46.0012 35.2339 47.2412 33.0584 48.6197 30.9712C48.6945 30.8718 48.7541 30.7618 48.7965 30.6449C48.8444 30.5706 48.8768 30.4873 48.8916 30.4001C48.899 30.3597 48.899 30.3182 48.8916 30.2778C48.8916 30.169 48.8916 30.0602 48.8916 29.965C48.9246 29.8036 48.9246 29.6371 48.8916 29.4756L60.6251 36.1241Z" fill="#EBEBEB"/>
<path d="M64.5 15.363L56.7638 10.8899C56.6653 10.8299 56.5528 10.797 56.4375 10.7947C56.2696 10.8063 56.1058 10.8521 55.9562 10.9293C55.8065 11.0064 55.6742 11.1133 55.5673 11.2433V11.2433L50.7271 16.3555L47.4777 19.7817C47.2131 20.0744 47.0179 20.4229 46.9066 20.8014L54.9419 25.3969L58.4769 27.4227C58.5902 27.0722 58.7807 26.7516 59.0344 26.4846L59.1431 26.3758L67.124 17.9326C67.252 17.7664 67.4254 17.6407 67.6232 17.5707C67.821 17.5008 68.0349 17.4895 68.2389 17.5384L64.5 15.363Z" fill="#F5F5F5"/>
<path d="M93.5684 6.79731C93.3684 6.70691 93.1471 6.67395 92.9294 6.70214L85.5467 7.43633C85.0965 7.49615 84.6747 7.69043 84.3366 7.99377L72.7664 1.31808C73.1049 1.00508 73.5327 0.805458 73.99 0.747036L81.3727 0.0128546C81.6214 -0.0254737 81.8757 0.022506 82.0933 0.148814L84.0783 1.30448L85.0572 1.87552L88.0348 3.60223L89.5983 4.51317C89.9926 4.71711 90.3733 4.94824 90.7268 5.15219L93.5684 6.79731Z" fill="#F5F5F5"/>
<path d="M56.0839 44.6761C55.7132 45.0664 55.2432 45.3484 54.7243 45.4918L47.7903 47.1642C47.2912 47.2912 46.8473 47.5776 46.5258 47.9799L34.9283 41.3178C35.2743 40.8898 35.7525 40.5886 36.288 40.4613L43.2084 38.8025C43.7255 38.6623 44.1952 38.3852 44.568 38.0004V38.0004L56.0839 44.6761Z" fill="#E6E6E6"/>
<path d="M50.8223 69.5841C50.7024 69.9562 50.5133 70.3021 50.2648 70.6039L43.222 79.1558C43.0151 79.4074 42.8624 79.699 42.7734 80.0124L31.2167 73.3367C31.2946 73.0177 31.4433 72.7203 31.6518 72.4665L38.7217 63.9146C38.9588 63.6146 39.1385 63.2735 39.252 62.9084L50.8223 69.5841Z" fill="#E6E6E6"/>
<path d="M35.0372 56.4639L35.2548 56.5998L34.9828 56.4367L34.4662 56.1376L35.0372 56.4639Z" fill="#FFBF19"/>
<path d="M81.7806 63.7242C79.2362 66.6269 75.9444 68.776 72.2634 69.9377L71.8555 70.0328C71.7607 70.0454 71.6647 70.0454 71.57 70.0328L70.9173 70.1416C70.6652 70.1822 70.411 70.2095 70.156 70.2232H69.449C67.9574 70.2374 66.4964 69.7994 65.2587 68.9669C64.0209 68.1344 63.0643 66.9466 62.5149 65.5597C61.9751 64.3291 61.6311 63.0217 61.4952 61.6848C62.0663 61.4265 62.6509 61.1138 63.2491 60.7875C71.4068 56.056 78.0553 44.5809 78.0553 35.1316C78.0553 34.4246 78.0553 33.772 77.9737 33.1194C79.6059 32.3548 81.3927 31.9779 83.1946 32.0181H83.5209H83.7793C83.874 32.0049 83.9701 32.0049 84.0648 32.0181C85.3475 32.2052 86.5587 32.7255 87.5775 33.5272C88.5962 34.3288 89.3868 35.3836 89.8703 36.5864C92.9295 43.67 89.3401 55.7569 81.7806 63.7242Z" fill="#FFBF19"/>
<path d="M60.6251 36.1241L49.0548 29.462C49.0686 29.3719 49.0686 29.2802 49.0548 29.1901L46.825 21.5627C46.7525 21.314 46.7525 21.0499 46.825 20.8013L54.8603 25.3968L58.3953 27.4226C58.2911 27.6907 58.2629 27.9824 58.3137 28.2655L60.5707 35.8794C60.6033 35.9571 60.6217 36.0399 60.6251 36.1241V36.1241Z" fill="#FFBF19"/>
<path d="M84.3367 7.99375C84.1638 8.15185 84.029 8.34708 83.9424 8.56478L79.9452 19.2785L68.3749 12.6028C68.3749 12.6028 68.3749 12.6028 68.3749 12.5213L72.3721 1.80752C72.4522 1.59757 72.5829 1.41071 72.7528 1.26367L84.3367 7.99375Z" fill="#FFBF19"/>
<path d="M105.819 13.7857C105.627 13.7443 105.428 13.7567 105.243 13.8215C105.059 13.8862 104.895 14.0009 104.772 14.1528L97.2531 21.0325C97.0471 21.2572 96.7716 21.4061 96.4708 21.4554C96.1699 21.5048 95.8613 21.4516 95.5943 21.3044C94.6277 20.5139 93.5395 19.8848 92.3721 19.4417C92.1069 19.3389 91.8859 19.1469 91.747 18.8988C91.608 18.6506 91.5598 18.3619 91.6107 18.0821L93.9356 7.54509C93.9743 7.40192 93.963 7.24986 93.9037 7.11393C93.8444 6.97801 93.7406 6.86634 93.6093 6.79731V6.79731L90.7269 5.13859C90.8211 5.11917 90.9183 5.11917 91.0124 5.13859L91.1756 5.23376L105.819 13.7857Z" fill="#FFBF19"/>
<path d="M109.122 41.2498C108.98 41.1756 108.821 41.1382 108.66 41.141L102.338 40.7875C102.199 40.7912 102.06 40.7668 101.931 40.7156C101.802 40.6645 101.684 40.5877 101.585 40.49C101.486 40.3922 101.407 40.2754 101.355 40.1467C101.302 40.0179 101.276 39.8798 101.277 39.7406C101.359 38.7481 101.413 37.7556 101.413 36.7903L109.122 41.2498Z" fill="#FFBF19"/>
<path d="M44.7312 37.7693C44.67 37.8602 44.5968 37.9426 44.5137 38.014L44.7312 37.7693Z" fill="#FFBF19"/>
<path d="M34.9012 41.3179C34.7597 41.4698 34.6529 41.6507 34.5885 41.8481L34.2214 43.2077L31.9509 50.8623L31.1759 53.4864C31.1282 53.6228 31.1282 53.7714 31.1759 53.9079C31.1871 53.9919 31.2199 54.0715 31.2711 54.139C31.3188 54.212 31.3786 54.2763 31.4478 54.3294C31.4835 54.3635 31.5249 54.3911 31.5702 54.4109L32.7258 55.0907L33.0521 55.2675L33.9767 55.7977L34.4797 56.0969L35.0508 56.4232L35.2683 56.5591L35.8801 56.899L39.252 58.8433L43.0181 61.0186C42.8749 60.9273 42.7663 60.7907 42.7096 60.6306C42.6529 60.4705 42.6515 60.296 42.7054 60.1349L45.7645 49.8426L46.1996 48.4014C46.2516 48.2167 46.3499 48.0482 46.4851 47.912L34.9012 41.3179Z" fill="#FFBF19"/>
<path d="M84.0104 84.8119L76.2606 80.3116C76.9812 79.8901 77.7426 79.4142 78.4768 78.952C79.211 78.4897 79.8364 78.5033 80.0539 78.952L83.8201 84.7167C83.8781 84.7583 83.9424 84.7904 84.0104 84.8119Z" fill="#FFBF19"/>
<path d="M60.625 84.268L58.3001 94.8729C58.2645 95.0107 58.276 95.1564 58.3326 95.287C58.3893 95.4175 58.4879 95.5254 58.6128 95.5935C58.1369 95.3352 50.8494 91.1068 46.6482 88.6731C46.9555 88.6425 47.2432 88.5083 47.464 88.2924L54.9826 81.3584C55.186 81.1346 55.4582 80.9851 55.7562 80.9334C56.0541 80.8816 56.3608 80.9308 56.6277 81.0729C57.5939 81.8711 58.6818 82.5091 59.85 82.9628C60.1118 83.0549 60.3328 83.236 60.4745 83.4746C60.6162 83.7132 60.6694 83.9941 60.625 84.268V84.268Z" fill="#FFBF19"/>
<path d="M50.9038 68.7412C50.9193 69.0287 50.8729 69.3162 50.7678 69.5842L39.1975 62.9085C39.3052 62.6362 39.3561 62.3447 39.3471 62.052C39.2467 61.0082 39.2013 59.9598 39.2111 58.9113L42.9772 61.0866C43.132 61.1727 43.3037 61.2237 43.4803 61.2362L49.8161 61.5897C49.954 61.586 50.0913 61.6101 50.2199 61.6604C50.3484 61.7107 50.4655 61.7862 50.5644 61.8826C50.6632 61.9789 50.7418 62.094 50.7954 62.2212C50.849 62.3484 50.8766 62.485 50.8766 62.623C50.7005 64.659 50.7096 66.7068 50.9038 68.7412V68.7412Z" fill="#FFBF19"/>
<path d="M46.3219 88.5507L43.29 86.7968L42.719 86.4569L37.838 83.6425C37.3757 83.3706 36.9406 83.1122 36.4784 82.8811L34.806 81.8886C34.7603 81.8638 34.719 81.8316 34.6837 81.7934C34.6426 81.7502 34.6103 81.6994 34.5885 81.6439L31.2303 74.2204C31.1667 74.0214 31.1667 73.8075 31.2303 73.6085C31.2247 73.5225 31.2247 73.4362 31.2303 73.3502L42.787 80.0259C42.6854 80.3164 42.6854 80.6328 42.787 80.9233L46.1316 88.3331C46.1776 88.4192 46.2427 88.4937 46.3219 88.5507V88.5507Z" fill="#FFBF19"/>
<path d="M525.082 47.7761C526.941 49.9047 529.356 51.4727 532.057 52.3036H532.356H532.56L533.036 52.3851H533.593H533.933C533.987 52.3989 534.043 52.3989 534.096 52.3851C535.181 52.3895 536.242 52.0694 537.143 51.4662C538.044 50.8629 538.745 50.004 539.154 48.9997C539.546 48.1063 539.794 47.1564 539.888 46.1853C539.48 45.995 539.045 45.7638 538.624 45.5191C535.483 43.4767 532.87 40.7213 530.996 37.4773C529.122 34.2333 528.042 30.5925 527.842 26.8516C527.842 26.335 527.842 25.8591 527.842 25.3968C526.654 24.8311 525.35 24.5517 524.035 24.5811H523.804H523.614H523.41C522.476 24.7217 521.596 25.1027 520.855 25.6868C520.113 26.2708 519.537 27.0377 519.181 27.9121C516.965 33.1874 519.576 41.9841 525.082 47.7761Z" fill="#4F46E5"/>
<path d="M504.878 32.1135L507.421 40.6518C507.523 40.889 507.68 41.0987 507.878 41.2641C508.076 41.4294 508.311 41.5457 508.563 41.6036L513.607 42.8136C514.141 42.9514 514.6 43.2931 514.885 43.7653C515.696 45.3866 516.604 46.9575 517.604 48.4696C517.874 48.8677 517.982 49.3544 517.903 49.8292L516.272 55.3764C516.229 55.6225 516.248 55.8752 516.326 56.1123C516.404 56.3493 516.54 56.5636 516.72 56.736L522.621 62.9495C522.907 63.2622 523.246 63.3573 523.464 63.2214C523.519 63.1923 523.565 63.1502 523.6 63.099L526.319 58.8978C526.51 58.5987 527.026 58.6259 527.475 58.8978C527.924 59.1697 528.549 59.6184 529.093 59.9311C529.637 60.2438 530.235 60.5565 530.792 60.8285C531.297 61.0632 531.709 61.4605 531.962 61.9569L534.871 69.7611C534.986 69.9839 535.154 70.175 535.36 70.3173C535.567 70.4596 535.805 70.5488 536.054 70.5769L541.411 71.1071C541.584 71.1302 541.761 71.0968 541.914 71.012V71.012C542.002 70.9616 542.071 70.8837 542.11 70.7904C542.149 70.697 542.157 70.5934 542.131 70.4953L540.432 62.8135C540.4 62.613 540.438 62.4077 540.539 62.2319C540.641 62.0561 540.8 61.9206 540.989 61.8482C541.84 61.5211 542.634 61.0623 543.342 60.4886C543.535 60.383 543.758 60.3457 543.975 60.3827C544.192 60.4197 544.391 60.5289 544.538 60.6925L549.976 65.6959C550.134 65.8607 550.347 65.9622 550.575 65.9814C550.637 65.9954 550.702 65.9954 550.765 65.9814V65.9814C550.835 65.9427 550.888 65.8799 550.915 65.8047L553.348 60.3662C553.409 60.1441 553.411 59.9104 553.357 59.6868C553.302 59.4633 553.192 59.2573 553.036 59.0882L547.91 52.8611C547.588 52.4811 547.41 51.9998 547.407 51.5015C547.543 50.0272 547.543 48.5435 547.407 47.0692C547.407 46.9687 547.427 46.8692 547.466 46.7766C547.505 46.6841 547.563 46.6004 547.635 46.5306C547.708 46.4608 547.793 46.4063 547.887 46.3703C547.981 46.3344 548.081 46.3178 548.182 46.3214L552.791 46.0631C552.888 46.0688 552.985 46.0513 553.074 46.0119C553.163 45.9725 553.242 45.9124 553.303 45.8366C553.364 45.7608 553.406 45.6714 553.426 45.5761C553.446 45.4807 553.442 45.3819 553.416 45.2881L550.874 36.7497C550.771 36.5126 550.615 36.3029 550.416 36.1375C550.218 35.9722 549.983 35.8559 549.732 35.798L544.701 34.588C544.168 34.4489 543.709 34.1075 543.423 33.6362C542.612 32.0152 541.704 30.4443 540.704 28.932C540.439 28.5317 540.332 28.047 540.405 27.5724L542.05 22.0116C542.078 21.7752 542.051 21.5354 541.971 21.3113C541.891 21.0871 541.759 20.8847 541.588 20.7199L535.701 14.4929C535.347 14.1258 534.912 14.0714 534.708 14.3705L531.989 18.5581C531.798 18.8573 531.295 18.8301 530.847 18.5581C529.79 17.8269 528.676 17.1813 527.516 16.6275C527.011 16.3928 526.599 15.9954 526.346 15.499L523.437 7.69484C523.325 7.47228 523.16 7.28111 522.956 7.13866C522.751 6.9962 522.515 6.90698 522.268 6.87907L516.911 6.34883C516.734 6.32999 516.556 6.35813 516.394 6.4304C516.301 6.48348 516.229 6.56534 516.187 6.66351C516.145 6.76168 516.137 6.87079 516.163 6.97425L517.917 14.6561C517.95 14.8549 517.914 15.059 517.815 15.2345C517.716 15.4101 517.56 15.5466 517.373 15.6214C516.521 15.9453 515.727 16.4044 515.021 16.981C514.827 17.0865 514.604 17.1238 514.387 17.0868C514.17 17.0498 513.972 16.9407 513.824 16.777L508.386 11.7737C508.1 11.5153 507.801 11.4202 507.597 11.5289C507.538 11.5699 507.491 11.6263 507.461 11.6921L505.014 17.1305C504.954 17.3526 504.951 17.5864 505.006 17.8099C505.06 18.0334 505.171 18.2394 505.327 18.4086L510.453 24.5404C510.763 24.927 510.94 25.4042 510.956 25.9C510.878 26.6589 510.841 27.4214 510.847 28.1842C510.847 28.8776 510.847 29.5438 510.956 30.3324C510.956 30.4329 510.935 30.5324 510.896 30.625C510.857 30.7175 510.799 30.8012 510.727 30.871C510.655 30.9408 510.569 30.9953 510.475 31.0312C510.381 31.0672 510.281 31.0838 510.181 31.0802L505.585 31.3385C505.468 31.3431 505.352 31.3709 505.245 31.4201V31.4201C505.109 31.4696 504.996 31.5679 504.928 31.696C504.86 31.8242 504.842 31.9729 504.878 32.1135V32.1135ZM525.068 47.7762C519.63 41.9843 516.911 33.1876 519.249 28.157C519.596 27.2798 520.169 26.5098 520.909 25.9249C521.649 25.34 522.53 24.9609 523.464 24.826H523.668H523.858H524.049C525.358 24.7994 526.656 25.0738 527.842 25.6281C528.291 25.8321 528.753 26.0632 529.202 26.3215C530.713 27.2205 532.087 28.3333 533.28 29.6254C537.244 33.7497 539.602 39.1557 539.929 44.8666C539.943 45.3892 539.916 45.912 539.847 46.4302C539.753 47.4013 539.505 48.3512 539.113 49.2446C538.706 50.2514 538.006 51.1132 537.105 51.719C536.204 52.3248 535.141 52.6468 534.055 52.6436H533.566H533.008L532.533 52.562H532.329L532.03 52.4805C529.317 51.5896 526.907 49.9606 525.068 47.7762V47.7762Z" fill="#F5F5F5"/>
<path d="M526.442 15.4718C526.689 15.9523 527.092 16.3355 527.584 16.5595C528.744 17.1133 529.858 17.7589 530.915 18.4901C531.363 18.7892 531.867 18.8164 532.057 18.4901L534.776 14.3025C534.807 14.2446 534.854 14.1972 534.912 14.1666V14.1666L540.065 11.189C539.494 10.8627 538.923 10.55 538.365 10.2917C538.293 10.2637 538.225 10.2272 538.161 10.1829C537.958 10.0562 537.771 9.90555 537.604 9.73423L537.4 9.51669C537.359 9.46557 537.323 9.41097 537.291 9.35354L537.21 9.20398L526.442 15.4718Z" fill="#EBEBEB"/>
<path d="M540.486 27.6946C540.467 28.1031 540.577 28.5072 540.799 28.8503C541.799 30.3626 542.707 31.9335 543.518 33.5546C543.583 33.6901 543.676 33.8106 543.79 33.9081L554.667 27.6403C554.606 27.5914 554.556 27.5314 554.517 27.4635C554.464 27.4114 554.418 27.3519 554.381 27.2867C553.576 25.6583 552.667 24.0825 551.662 22.5689C551.613 22.4964 551.572 22.4189 551.54 22.3378C551.506 22.284 551.483 22.2239 551.472 22.161C551.472 22.161 551.472 22.161 551.472 22.0658C551.472 21.9707 551.472 22.0658 551.472 22.0658C551.467 21.9889 551.467 21.9117 551.472 21.8347C551.439 21.7192 551.439 21.5967 551.472 21.4812L540.486 27.6946Z" fill="#EBEBEB"/>
<path d="M540.133 11.189L545.762 7.92591C545.842 7.90458 545.926 7.90458 546.006 7.92591C546.127 7.93444 546.246 7.96782 546.353 8.02396C546.461 8.0801 546.556 8.1578 546.632 8.25222V8.25222L550.153 11.9368L552.519 14.4249C552.716 14.6379 552.86 14.894 552.94 15.1726L544.66 19.9177L542.091 21.3861C542.011 21.1303 541.871 20.8972 541.683 20.7063L541.615 20.6247L535.796 14.4792C535.702 14.3574 535.575 14.2655 535.43 14.2148C535.286 14.164 535.129 14.1567 534.98 14.1937L540.133 11.189Z" fill="#F5F5F5"/>
<path d="M516.503 6.34877C516.655 6.31187 516.813 6.31187 516.965 6.34877L522.336 6.87902C522.667 6.91463 522.977 7.05792 523.219 7.2869L534.096 1.03269C533.854 0.794263 533.537 0.64559 533.199 0.611207L527.828 0.0809588C527.646 0.0517223 527.459 0.0852768 527.298 0.176131L525.857 1.01909L525.15 1.42697L520.555 4.14619L519.412 4.81241L518.61 5.13872L516.503 6.34877Z" fill="#F5F5F5"/>
<path d="M543.79 33.9217C544.067 34.2067 544.414 34.4131 544.796 34.52L549.84 35.73C550.201 35.8264 550.523 36.0303 550.765 36.3147L561.642 30.074C561.393 29.7696 561.056 29.5509 560.676 29.4486L555.646 28.2386C555.267 28.141 554.923 27.9383 554.653 27.6539V27.6539L543.79 33.9217Z" fill="#E6E6E6"/>
<path d="M547.611 52.0453C547.7 52.3175 547.838 52.571 548.019 52.7931L553.144 59.0202C553.298 59.2023 553.409 59.4158 553.471 59.6456L564.348 53.3778C564.289 53.1427 564.177 52.9241 564.021 52.7388L558.882 46.5117C558.71 46.298 558.581 46.0534 558.501 45.7911L547.611 52.0453Z" fill="#E6E6E6"/>
<path d="M561.52 41.1004L561.37 41.1956L561.56 41.0868L561.941 40.8693L561.52 41.1004Z" fill="#FFBF19"/>
<path d="M525.082 47.7761C526.941 49.9047 529.356 51.4727 532.057 52.3036H532.356H532.56L533.036 52.3851H533.593H533.933C533.987 52.3989 534.043 52.3989 534.096 52.3851C535.181 52.3895 536.242 52.0694 537.143 51.4662C538.044 50.8629 538.745 50.004 539.154 48.9997C539.546 48.1063 539.794 47.1564 539.888 46.1853C539.48 45.995 539.045 45.7638 538.624 45.5191C535.483 43.4767 532.87 40.7213 530.996 37.4773C529.122 34.2333 528.042 30.5925 527.842 26.8516C527.842 26.335 527.842 25.8591 527.842 25.3968C526.654 24.8311 525.35 24.5517 524.035 24.5811H523.804H523.614H523.41C522.476 24.7217 521.596 25.1027 520.855 25.6868C520.113 26.2708 519.537 27.0377 519.181 27.9121C516.965 33.1874 519.576 41.9841 525.082 47.7761Z" fill="#FFBF19"/>
<path d="M540.486 27.6946L551.363 21.4404C551.349 21.3777 551.349 21.3127 551.363 21.25L553.008 15.6892C553.061 15.5118 553.061 15.3228 553.008 15.1454L544.728 19.8904L542.159 21.3588C542.217 21.5587 542.217 21.7708 542.159 21.9706L540.527 27.5179C540.499 27.5724 540.485 27.6332 540.486 27.6946V27.6946Z" fill="#FFBF19"/>
<path d="M523.219 7.21893C523.344 7.33163 523.442 7.47108 523.505 7.62682L526.414 15.431L537.291 9.16318L534.382 1.35901C534.325 1.20709 534.232 1.07161 534.11 0.964722L523.219 7.21893Z" fill="#FFBF19"/>
<path d="M507.584 11.4337C507.722 11.4087 507.865 11.4193 507.998 11.4645C508.131 11.5097 508.251 11.588 508.345 11.6921L513.784 16.709C513.93 16.8748 514.128 16.9854 514.346 17.0226C514.563 17.0597 514.787 17.021 514.98 16.913C515.686 16.3364 516.48 15.8773 517.332 15.5534C517.521 15.4807 517.678 15.3446 517.778 15.1684C517.877 14.9923 517.912 14.7871 517.876 14.588L516.19 6.90624C516.164 6.80279 516.173 6.69367 516.214 6.59549C516.256 6.49732 516.329 6.41547 516.421 6.36239V6.36239L518.61 5.13874C518.543 5.12481 518.474 5.12481 518.406 5.13874C518.366 5.13163 518.324 5.13163 518.284 5.13874L507.584 11.4337Z" fill="#FFBF19"/>
<path d="M505.177 31.42C505.283 31.3689 505.399 31.3411 505.517 31.3384L510.126 31.0801C510.226 31.0838 510.326 31.0671 510.419 31.031C510.512 30.9949 510.597 30.9402 510.668 30.8702C510.739 30.8002 510.796 30.7164 510.833 30.6239C510.871 30.5314 510.89 30.4322 510.888 30.3323C510.888 29.5981 510.792 28.8775 510.792 28.1841L505.177 31.42Z" fill="#FFBF19"/>
<path d="M554.477 27.4771C554.515 27.5449 554.566 27.6049 554.626 27.6538V27.6538L554.477 27.4771Z" fill="#FFBF19"/>
<path d="M561.628 30.074C561.711 30.1735 561.771 30.2893 561.805 30.4139L562.118 31.4608L563.777 37.0352L564.348 38.9522C564.375 39.0547 564.375 39.1625 564.348 39.265C564.337 39.3235 564.314 39.3791 564.28 39.4281C564.246 39.4796 564.205 39.5254 564.157 39.5641H564.062L563.219 40.0671L562.974 40.1895L562.308 40.5838L561.941 40.8013L561.52 41.0325L561.37 41.1276L560.921 41.3724L558.474 42.732L553.308 45.7231C553.414 45.6563 553.495 45.5555 553.537 45.437C553.579 45.3186 553.579 45.1894 553.539 45.0705L551.241 37.7694L550.928 36.7225C550.887 36.587 550.818 36.4618 550.724 36.3554L561.628 30.074Z" fill="#FFBF19"/>
<path d="M523.45 63.1398L529.093 59.8631C528.576 59.5504 528.019 59.2105 527.488 58.8434C526.958 58.4763 526.537 58.5171 526.346 58.8434L523.627 63.0446C523.578 63.0915 523.517 63.1244 523.45 63.1398V63.1398Z" fill="#FFBF19"/>
<path d="M540.486 62.7318L542.172 70.4272C542.197 70.5268 542.187 70.6315 542.145 70.7251C542.103 70.8186 542.032 70.8956 541.941 70.9439C542.281 70.7535 547.597 67.6944 550.656 65.9133C550.429 65.8941 550.216 65.7926 550.058 65.6278L544.62 60.6244C544.475 60.4565 544.277 60.3442 544.058 60.307C543.84 60.2698 543.615 60.3099 543.423 60.4205C542.715 60.9942 541.922 61.4531 541.071 61.7801C540.876 61.8426 540.71 61.9729 540.602 62.1476C540.495 62.3222 540.454 62.5295 540.486 62.7318V62.7318Z" fill="#FFBF19"/>
<path d="M547.516 51.4336C547.504 51.6419 547.536 51.8505 547.611 52.0454L558.488 45.7912C558.41 45.5921 558.373 45.3794 558.379 45.1657C558.452 44.4066 558.484 43.6441 558.474 42.8816L553.308 45.8727C553.194 45.9329 553.069 45.9655 552.941 45.9679L548.331 46.2398C548.231 46.2362 548.131 46.2528 548.037 46.2888C547.943 46.3247 547.857 46.3792 547.785 46.449C547.713 46.5188 547.655 46.6025 547.616 46.695C547.577 46.7876 547.556 46.8871 547.556 46.9876C547.673 48.4679 547.659 49.9556 547.516 51.4336V51.4336Z" fill="#FFBF19"/>
<path d="M550.887 65.8453L553.09 64.5809L553.512 64.3361L557.074 62.2831L558.025 61.7257L561.683 59.6047C561.709 59.613 561.738 59.613 561.764 59.6047L561.846 59.4959L564.28 54.0575C564.323 53.9111 564.323 53.7552 564.28 53.6088V53.4185L553.403 59.6863C553.479 59.8972 553.479 60.1279 553.403 60.3389L550.969 65.7773C550.946 65.8043 550.918 65.8273 550.887 65.8453V65.8453Z" fill="#FFBF19"/>
<path d="M546.224 103.574L549.718 115.308C549.852 115.642 550.064 115.94 550.336 116.177C550.608 116.413 550.932 116.581 551.282 116.668L558.202 118.34C558.947 118.543 559.582 119.032 559.97 119.699C561.073 121.927 562.312 124.083 563.681 126.158C564.043 126.697 564.193 127.35 564.103 127.993L561.846 135.621C561.808 135.943 561.844 136.271 561.953 136.577C562.061 136.884 562.239 137.161 562.471 137.388L570.561 145.94C570.955 146.361 571.431 146.497 571.744 146.307C571.816 146.263 571.876 146.202 571.921 146.13L575.7 140.366C575.959 139.958 576.666 139.985 577.278 140.366C577.889 140.746 578.76 141.345 579.494 141.725C580.228 142.106 581.057 142.595 581.832 142.949C582.525 143.284 583.092 143.832 583.45 144.512L587.447 155.226C587.599 155.537 587.827 155.803 588.11 156.001C588.393 156.198 588.722 156.32 589.065 156.355L596.434 157.089C596.673 157.117 596.914 157.074 597.128 156.966C597.128 156.966 597.128 156.966 597.128 156.966C597.253 156.898 597.351 156.79 597.408 156.66C597.465 156.529 597.476 156.384 597.441 156.246L595.116 145.695C595.056 145.415 595.101 145.122 595.241 144.872C595.381 144.622 595.607 144.432 595.877 144.336C597.042 143.881 598.129 143.248 599.099 142.459C599.365 142.316 599.671 142.264 599.968 142.314C600.266 142.363 600.539 142.51 600.744 142.731L608.277 149.625C608.496 149.845 608.783 149.985 609.092 150.019V150.019C609.183 150.017 609.271 149.994 609.351 149.951C609.446 149.902 609.518 149.82 609.555 149.72L612.913 142.31C612.988 142.004 612.987 141.685 612.912 141.379C612.836 141.074 612.687 140.791 612.478 140.556L605.422 132.004C604.987 131.475 604.747 130.813 604.742 130.128C604.925 128.102 604.925 126.063 604.742 124.037C604.742 123.899 604.769 123.762 604.823 123.635C604.877 123.508 604.955 123.393 605.054 123.296C605.153 123.2 605.27 123.124 605.398 123.074C605.527 123.024 605.664 123 605.802 123.003L612.124 122.65C612.259 122.662 612.395 122.641 612.52 122.589C612.644 122.537 612.754 122.455 612.84 122.35C612.926 122.245 612.985 122.121 613.012 121.989C613.039 121.856 613.033 121.719 612.995 121.589L609.541 109.829C609.399 109.506 609.184 109.222 608.913 108.997C608.641 108.773 608.321 108.615 607.978 108.537L601.057 106.865C600.313 106.66 599.678 106.172 599.29 105.505C598.184 103.279 596.945 101.123 595.578 99.047C595.21 98.5106 595.06 97.8546 595.156 97.2115L597.413 89.5841C597.453 89.2612 597.417 88.9336 597.308 88.627C597.2 88.3203 597.022 88.043 596.788 87.8166L588.698 79.2647C588.209 78.7616 587.597 78.6664 587.339 79.0743L583.559 84.8391C583.301 85.2469 582.607 85.2197 581.982 84.8391C580.529 83.8404 579.002 82.9541 577.414 82.1878C576.721 81.8646 576.156 81.319 575.809 80.6379L571.812 69.9241C571.662 69.6156 571.436 69.3501 571.155 69.1528C570.875 68.9554 570.549 68.8325 570.208 68.7956L562.825 68.0614C562.587 68.0406 562.348 68.0828 562.131 68.1838C562.004 68.2564 561.903 68.3685 561.844 68.5033C561.785 68.6382 561.771 68.7884 561.805 68.9316L564.13 79.4822C564.187 79.7607 564.144 80.0505 564.007 80.2997C563.869 80.5488 563.648 80.741 563.382 80.8418C562.213 81.2867 561.124 81.9205 560.16 82.7181C559.892 82.8636 559.582 82.9146 559.281 82.8628C558.98 82.811 558.706 82.6595 558.501 82.4326L550.969 75.5529C550.844 75.3965 550.674 75.2815 550.483 75.2233C550.291 75.1651 550.086 75.1662 549.895 75.2266C549.81 75.287 549.74 75.3661 549.691 75.4577L546.346 82.8812C546.266 83.1856 546.263 83.5052 546.336 83.8113C546.41 84.1174 546.558 84.4004 546.768 84.6351L553.824 93.1735C554.267 93.6991 554.512 94.3627 554.518 95.0497C554.422 96.0695 554.382 97.1164 554.382 98.1904C554.382 99.2645 554.45 100.135 554.531 101.141C554.533 101.279 554.507 101.416 554.454 101.543C554.401 101.67 554.322 101.785 554.223 101.881C554.123 101.977 554.005 102.051 553.876 102.099C553.746 102.147 553.609 102.168 553.471 102.161L547.149 102.528C546.988 102.525 546.829 102.562 546.686 102.636V102.636C546.508 102.709 546.362 102.845 546.277 103.018C546.192 103.191 546.173 103.389 546.224 103.574V103.574ZM573.96 125.097C566.414 117.13 562.825 105.056 565.952 98.1361C566.432 96.9326 567.22 95.8761 568.236 95.0721C569.253 94.2682 570.462 93.7447 571.744 93.5542H572.029H572.301H572.628C574.43 93.514 576.216 93.8909 577.849 94.6554C578.487 94.9374 579.109 95.2552 579.711 95.6072C581.775 96.8441 583.652 98.3686 585.286 100.135C590.955 106.117 594.395 114.397 594.436 121.086C594.444 121.804 594.403 122.522 594.313 123.234C594.182 124.566 593.843 125.869 593.307 127.096C592.757 128.485 591.799 129.674 590.558 130.507C589.318 131.34 587.854 131.776 586.36 131.759H585.666L584.905 131.691L584.252 131.583L583.953 131.515L583.545 131.406C579.83 130.225 576.513 128.042 573.96 125.097V125.097Z" fill="#F5F5F5"/>
<path d="M575.836 80.7059C576.187 81.3612 576.74 81.8857 577.413 82.2014C579.005 82.9617 580.532 83.8483 581.982 84.8527C582.593 85.2742 583.341 85.3014 583.559 84.8527L587.325 79.0879C587.374 79.0155 587.439 78.9551 587.515 78.9112H587.583L591.322 76.7358C590.534 76.2736 589.745 75.8657 588.984 75.5122L588.698 75.349C588.421 75.1763 588.165 74.9709 587.937 74.7372C587.839 74.6441 587.748 74.5441 587.665 74.4381C587.605 74.3733 587.554 74.3 587.515 74.2205L587.406 74.0166L575.836 80.7059Z" fill="#EBEBEB"/>
<path d="M595.129 97.4971C595.117 98.0644 595.273 98.6225 595.578 99.1014C596.942 101.177 598.186 103.328 599.303 105.546C599.396 105.729 599.52 105.895 599.67 106.035L611.24 99.3598C611.157 99.2883 611.084 99.206 611.023 99.115C610.955 99.0403 610.896 98.9582 610.846 98.8703C609.744 96.6384 608.504 94.477 607.134 92.3986C607.057 92.2959 606.997 92.181 606.958 92.0587C606.906 91.9911 606.874 91.9115 606.862 91.8275C606.855 91.7825 606.855 91.7366 606.862 91.6916C606.862 91.6916 606.862 91.6916 606.862 91.6916C606.862 91.6916 606.862 91.474 606.794 91.3788C606.762 91.2173 606.762 91.0509 606.794 90.8894L595.129 97.4971Z" fill="#EBEBEB"/>
<path d="M591.322 76.7495L599.058 72.2628C599.157 72.2028 599.269 72.1699 599.385 72.1676C599.551 72.1827 599.713 72.2315 599.86 72.311C600.007 72.3904 600.137 72.4989 600.241 72.6299V72.6299L605.081 77.742L608.331 81.1682C608.595 81.4558 608.79 81.7999 608.902 82.1743L600.853 86.7834L597.332 88.8092C597.216 88.4597 597.026 88.1395 596.774 87.8711L596.665 87.7624L588.684 79.3192C588.56 79.1487 588.387 79.0199 588.188 78.9495C587.989 78.8792 587.774 78.8706 587.57 78.9249L591.322 76.7495Z" fill="#F5F5F5"/>
<path d="M562.186 68.1703C562.388 68.0877 562.607 68.0551 562.825 68.0751L570.194 68.8229C570.652 68.8682 571.083 69.0642 571.418 69.3804L582.988 62.7047C582.654 62.3828 582.225 62.1777 581.764 62.12L574.382 61.3859C574.133 61.3527 573.88 61.4004 573.661 61.5218L571.662 62.6775L570.697 63.2485L567.706 64.9888L566.156 65.8862C565.762 66.1037 565.381 66.3348 565.014 66.5252L562.186 68.1703Z" fill="#F5F5F5"/>
<path d="M599.67 106.049C600.044 106.439 600.512 106.724 601.03 106.878L607.95 108.537C608.449 108.673 608.895 108.957 609.228 109.353L620.826 102.691C620.476 102.27 619.999 101.974 619.466 101.848L612.546 100.175C612.029 100.035 611.559 99.7581 611.186 99.3733V99.3733L599.67 106.049Z" fill="#E6E6E6"/>
<path d="M604.918 130.957C605.046 131.33 605.235 131.679 605.476 131.99L612.532 140.542C612.74 140.794 612.892 141.085 612.981 141.399L624.538 134.723C624.458 134.398 624.304 134.096 624.089 133.84L617.033 125.288C616.791 124.989 616.606 124.648 616.489 124.281L604.918 130.957Z" fill="#E6E6E6"/>
<path d="M620.703 117.837L620.5 117.973L620.771 117.823L621.288 117.524L620.703 117.837Z" fill="#FFBF19"/>
<path d="M573.96 125.097C576.525 128.017 579.847 130.172 583.559 131.324L583.953 131.419L584.239 131.487L584.905 131.596L585.666 131.664H586.142C586.214 131.678 586.288 131.678 586.36 131.664C587.853 131.681 589.317 131.244 590.558 130.412C591.798 129.579 592.757 128.39 593.307 127.001C593.845 125.774 594.189 124.472 594.327 123.139C593.756 122.868 593.171 122.568 592.573 122.228C584.415 117.497 577.767 106.036 577.767 96.5862C577.767 95.8656 577.767 95.2266 577.848 94.574C576.214 93.7993 574.422 93.4176 572.614 93.4591H572.301H572.029H571.744C570.462 93.6497 569.253 94.1731 568.236 94.9771C567.22 95.781 566.432 96.8375 565.952 98.041C562.825 105.057 566.414 117.13 573.96 125.097Z" fill="#FFBF19"/>
<path d="M595.129 97.4971L606.686 90.835C606.665 90.7456 606.665 90.6526 606.686 90.5631L608.943 82.9357C609.022 82.6881 609.022 82.4219 608.943 82.1743L600.894 86.7834L597.372 88.8092C597.459 89.0789 597.459 89.3689 597.372 89.6386L595.129 97.266C595.114 97.3423 595.114 97.4209 595.129 97.4971V97.4971Z" fill="#FFBF19"/>
<path d="M571.417 69.3804C571.589 69.5346 571.723 69.7251 571.812 69.9379L575.809 80.6652L587.379 73.9895L583.382 63.2622C583.3 63.0571 583.169 62.8751 583.001 62.7319L571.417 69.3804Z" fill="#FFBF19"/>
<path d="M549.881 75.1722C550.069 75.1288 550.266 75.1388 550.449 75.2013C550.631 75.2638 550.793 75.3762 550.915 75.5257L558.447 82.4054C558.653 82.6301 558.928 82.7791 559.229 82.8284C559.53 82.8777 559.839 82.8245 560.106 82.6773C561.073 81.8946 562.155 81.2663 563.314 80.8146C563.584 80.7187 563.81 80.528 563.951 80.2779C564.091 80.0278 564.135 79.7354 564.076 79.455L561.764 68.9044C561.725 68.7628 561.734 68.6119 561.791 68.4761C561.847 68.3404 561.948 68.2278 562.077 68.1566V68.1566L564.905 66.5115C564.816 66.4911 564.723 66.4911 564.633 66.5115L564.47 66.6203L549.881 75.1722Z" fill="#FFBF19"/>
<path d="M546.632 102.623C546.777 102.555 546.934 102.518 547.094 102.514L553.416 102.161C553.693 102.161 553.959 102.053 554.157 101.86C554.355 101.667 554.47 101.404 554.477 101.127C554.395 100.121 554.327 99.1287 554.327 98.1633L546.632 102.623Z" fill="#FFBF19"/>
<path d="M611.064 99.1287C611.125 99.2196 611.198 99.3019 611.281 99.3734V99.3734L611.064 99.1287Z" fill="#FFBF19"/>
<path d="M620.853 102.691C620.966 102.826 621.049 102.984 621.098 103.153L621.533 104.608L623.803 112.263L624.578 114.887C624.626 115.028 624.626 115.181 624.578 115.322C624.561 115.4 624.528 115.473 624.483 115.539C624.443 115.618 624.382 115.684 624.306 115.73L624.184 115.811L623.015 116.491L622.702 116.681L621.764 117.225L621.275 117.524L620.69 117.837L620.486 117.973L619.874 118.313L616.502 120.257L612.736 122.446C612.882 122.357 612.993 122.221 613.052 122.061C613.112 121.9 613.115 121.725 613.062 121.562L610.003 111.256L609.568 109.815C609.513 109.632 609.415 109.464 609.283 109.326L620.853 102.691Z" fill="#FFBF19"/>
<path d="M571.73 146.198L579.494 141.698C578.759 141.263 578.012 140.787 577.277 140.338C576.543 139.89 575.918 139.89 575.7 140.338L571.921 146.103C571.864 146.147 571.799 146.179 571.73 146.198V146.198Z" fill="#FFBF19"/>
<path d="M595.129 145.655L597.454 156.219C597.486 156.355 597.473 156.497 597.417 156.625C597.36 156.753 597.263 156.858 597.141 156.926C597.603 156.668 604.905 152.453 609.106 150.005C608.794 149.978 608.501 149.843 608.276 149.625L600.758 142.745C600.554 142.521 600.282 142.372 599.984 142.32C599.686 142.268 599.379 142.317 599.113 142.46C598.14 143.252 597.048 143.885 595.877 144.336C595.617 144.433 595.4 144.619 595.264 144.86C595.127 145.101 595.079 145.382 595.129 145.655V145.655Z" fill="#FFBF19"/>
<path d="M604.796 130.114C604.773 130.401 604.815 130.689 604.918 130.957L616.489 124.281C616.382 124.009 616.336 123.717 616.353 123.425C616.449 122.381 616.49 121.333 616.475 120.284L612.709 122.473C612.557 122.565 612.384 122.617 612.206 122.623L605.87 122.976C605.732 122.971 605.593 122.993 605.464 123.043C605.335 123.093 605.217 123.168 605.118 123.265C605.018 123.361 604.94 123.477 604.887 123.605C604.834 123.733 604.808 123.871 604.81 124.01C604.989 126.041 604.985 128.084 604.796 130.114Z" fill="#FFBF19"/>
<path d="M609.419 149.924C609.663 149.788 610.86 149.108 612.464 148.17L613.035 147.844L617.916 145.016L619.276 144.254L620.962 143.275C621.01 143.255 621.052 143.222 621.084 143.18C621.12 143.138 621.152 143.092 621.179 143.044L624.524 135.661C624.589 135.458 624.589 135.239 624.524 135.036V134.791L612.967 141.467C613.069 141.757 613.069 142.074 612.967 142.364L609.609 149.761C609.564 149.834 609.498 149.891 609.419 149.924V149.924Z" fill="#FFBF19"/>
<path d="M383.655 20.9509V337.156C383.753 338.924 384.264 340.644 385.147 342.179C386.03 343.714 387.261 345.02 388.74 345.993L528.957 426.931C531.758 428.563 534.042 427.23 534.042 423.981V107.789C533.944 106.021 533.433 104.301 532.55 102.766C531.667 101.231 530.436 99.9248 528.957 98.9518L388.74 18.0141C385.939 16.3826 383.655 17.7014 383.655 20.9509ZM390.984 58.6937C390.984 55.9745 392.941 54.7781 395.362 56.1785L522.839 129.761C524.112 130.594 525.172 131.714 525.932 133.032C526.693 134.35 527.133 135.828 527.217 137.347V385.028C527.217 387.829 525.245 388.943 522.839 387.557L395.362 313.961C392.941 312.601 390.984 310.793 390.984 308.019V58.6937Z" fill="#4F46E5"/>
<path opacity="0.5" d="M383.655 20.9509V337.156C383.753 338.924 384.264 340.644 385.147 342.179C386.03 343.714 387.261 345.02 388.74 345.993L528.957 426.931C531.758 428.563 534.042 427.23 534.042 423.981V107.789C533.944 106.021 533.433 104.301 532.55 102.766C531.667 101.231 530.436 99.9248 528.957 98.9518L388.74 18.0141C385.939 16.3826 383.655 17.7014 383.655 20.9509ZM390.984 58.6937C390.984 55.9745 392.941 54.7781 395.362 56.1785L522.839 129.761C524.112 130.594 525.172 131.714 525.932 133.032C526.693 134.35 527.133 135.828 527.217 137.347V385.028C527.217 387.829 525.245 388.943 522.839 387.557L395.362 313.961C392.941 312.601 390.984 310.793 390.984 308.019V58.6937Z" fill="black"/>
<path d="M529.583 427.244C531.097 427.883 532.732 428.186 534.375 428.132C536.019 428.078 537.63 427.668 539.1 426.931L544.933 423.559C546.422 422.595 547.662 421.291 548.551 419.755C549.44 418.219 549.951 416.494 550.045 414.722V98.544C550.017 97.2275 549.716 95.9312 549.161 94.7371C548.983 94.3188 548.784 93.9104 548.563 93.5134V93.5134L532.519 102.772C532.858 103.376 533.153 104.003 533.403 104.649C533.784 105.658 533.991 106.724 534.015 107.803V423.994C534.042 426.985 532.098 428.345 529.583 427.244Z" fill="#4F46E5"/>
<path opacity="0.7" d="M529.583 427.244C531.097 427.883 532.732 428.186 534.375 428.132C536.019 428.078 537.63 427.668 539.1 426.931L544.933 423.559C546.422 422.595 547.662 421.291 548.551 419.755C549.44 418.219 549.951 416.494 550.045 414.722V98.544C550.017 97.2275 549.716 95.9312 549.161 94.7371C548.983 94.3188 548.784 93.9104 548.563 93.5134V93.5134L532.519 102.772C532.858 103.376 533.153 104.003 533.403 104.649C533.784 105.658 533.991 106.724 534.015 107.803V423.994C534.042 426.985 532.098 428.345 529.583 427.244Z" fill="black"/>
<path d="M457.632 358.638C453.186 356.082 449.583 358.162 449.583 363.288C449.734 366.082 450.541 368.801 451.939 371.225C453.338 373.649 455.288 375.709 457.632 377.237C462.078 379.793 465.681 377.713 465.681 372.587C465.53 369.793 464.723 367.074 463.325 364.65C461.926 362.226 459.976 360.166 457.632 358.638Z" stroke="#E6E6E6" stroke-miterlimit="10"/>
<path d="M458.787 65.3014C456.911 64.2137 455.375 65.0975 455.375 67.2728C455.442 68.4586 455.785 69.6123 456.378 70.6416C456.971 71.6709 457.796 72.5473 458.787 73.2008C460.677 74.2884 462.214 73.4047 462.214 71.2157C462.148 70.0298 461.804 68.8761 461.209 67.8484C460.613 66.8207 459.784 65.948 458.787 65.3014V65.3014Z" fill="black"/>
<path d="M472.044 86.0899L445.654 70.8487C444.076 69.9513 442.798 70.5904 442.798 72.2899C442.868 73.2496 443.162 74.1795 443.658 75.0039C444.154 75.8284 444.838 76.5242 445.654 77.0349L472.044 92.2626C473.621 93.1735 474.899 92.5345 474.899 90.8214C474.827 89.864 474.532 88.9369 474.036 88.1149C473.54 87.293 472.857 86.5993 472.044 86.0899V86.0899Z" fill="black"/>
<path d="M390.984 308.019C390.984 310.738 392.941 312.574 395.362 313.961L522.839 387.557C525.245 388.916 527.217 387.828 527.217 385.028V137.347C527.133 135.828 526.693 134.35 525.932 133.032C525.172 131.714 524.112 130.594 522.839 129.761L395.362 56.1784C392.941 54.8188 390.984 55.9065 390.984 58.6937V308.019Z" fill="#4F46E5"/>
<path opacity="0.5" d="M390.984 308.019C390.984 310.738 392.941 312.574 395.362 313.961L522.839 387.557C525.245 388.916 527.217 387.828 527.217 385.028V137.347C527.133 135.828 526.693 134.35 525.932 133.032C525.172 131.714 524.112 130.594 522.839 129.761L395.362 56.1784C392.941 54.8188 390.984 55.9065 390.984 58.6937V308.019Z" fill="white"/>
<path d="M399.508 77.4291V75.1042C399.508 74.6011 399.712 74.302 399.957 74.438L400.079 74.5195C400.235 74.6672 400.355 74.8474 400.433 75.0472C400.51 75.247 400.543 75.4614 400.528 75.6752V78.0001C400.528 78.5032 400.324 78.8023 400.079 78.6528H399.957C399.794 78.4965 399.669 78.305 399.591 78.0929C399.513 77.8808 399.485 77.6538 399.508 77.4291Z" fill="#FFBF19"/>
<path d="M401.534 78.5575V74.4787C401.534 73.9756 401.724 73.6765 401.969 73.8261H402.092C402.246 73.977 402.367 74.1596 402.444 74.3615C402.522 74.5633 402.554 74.7796 402.54 74.9954V79.0062C402.54 79.5093 402.336 79.7948 402.092 79.6588L401.969 79.5908C401.697 79.315 401.541 78.9451 401.534 78.5575Z" fill="#FFBF19"/>
<path d="M403.546 79.754V74.0436C403.546 73.5405 403.75 73.255 403.995 73.391L404.117 73.459C404.272 73.6104 404.391 73.7931 404.469 73.9949C404.546 74.1966 404.579 74.4126 404.566 74.6282V80.3386C404.566 80.8417 404.362 81.1272 404.117 80.9912H403.995C403.832 80.8322 403.706 80.6384 403.629 80.4241C403.551 80.2098 403.523 79.9807 403.546 79.754V79.754Z" fill="#FFBF19"/>
<path d="M405.572 80.9098V71.0662C405.572 70.5632 405.763 70.2641 406.007 70.4136H406.13C406.284 70.565 406.404 70.7478 406.481 70.9495C406.558 71.1512 406.592 71.3672 406.578 71.5829V81.4265C406.578 81.9295 406.374 82.2286 406.13 82.0791H406.007C405.854 81.9275 405.736 81.7444 405.661 81.5425C405.586 81.3405 405.555 81.1246 405.572 80.9098V80.9098Z" fill="#FFBF19"/>
<path d="M411.038 84.7438C410.99 84.6274 410.967 84.5024 410.97 84.3767V82.9355L408.713 81.5759C408.655 81.5452 408.605 81.5026 408.565 81.4511C408.526 81.3995 408.497 81.3401 408.482 81.2768V80.7602C408.471 80.6744 408.471 80.5876 408.482 80.5018C408.501 80.437 408.523 80.3735 408.55 80.3115L410.956 76.5182C410.956 76.5182 411.038 76.4094 411.079 76.3958C411.119 76.3822 411.16 76.3958 411.228 76.3958L411.541 76.5862C411.639 76.6341 411.717 76.7163 411.758 76.8173C411.782 76.9431 411.782 77.0722 411.758 77.198V82.2557L412.261 82.5412C412.349 82.5921 412.42 82.6678 412.465 82.7588C412.489 82.8891 412.489 83.0227 412.465 83.1531V83.493C412.494 83.5906 412.494 83.6945 412.465 83.7921C412.465 83.7921 412.357 83.7921 412.261 83.7921L411.758 83.5066V84.9478C411.787 85.0454 411.787 85.1492 411.758 85.2469C411.758 85.2469 411.65 85.2469 411.541 85.2469L411.16 85.0293C411.09 84.95 411.047 84.8498 411.038 84.7438V84.7438ZM411.119 81.7935V78.1905L409.474 80.9097L411.119 81.7935Z" fill="#FFBF19"/>
<path d="M413.716 85.4236C413.249 84.2383 413.023 82.9719 413.05 81.6982C412.949 80.6687 413.183 79.6342 413.716 78.7479C414.169 78.2312 414.795 78.204 415.592 78.6663C416.263 79.046 416.817 79.6005 417.197 80.2706C417.217 80.3371 417.217 80.4081 417.197 80.4746C417.202 80.5198 417.202 80.5654 417.197 80.6105L416.993 81.1272C416.993 81.1272 416.993 81.2088 416.911 81.1952C416.871 81.1623 416.838 81.1204 416.816 81.0728C416.528 80.605 416.132 80.2133 415.66 79.9307C415.117 79.618 414.682 79.6316 414.382 79.9987C414 80.671 413.839 81.446 413.92 82.2149C413.892 83.1418 414.044 84.0654 414.369 84.9341C414.596 85.5638 415.026 86.0997 415.592 86.4569C415.766 86.5642 415.954 86.6466 416.15 86.7016C416.297 86.7402 416.452 86.7402 416.599 86.7016V84.4039L415.66 83.86C415.569 83.8077 415.497 83.7264 415.457 83.6289C415.432 83.5032 415.432 83.3739 415.457 83.2482V82.9219C415.457 82.7587 415.457 82.6636 415.457 82.6228C415.457 82.582 415.565 82.6228 415.66 82.6228L417.156 83.4929C417.264 83.5523 417.346 83.649 417.387 83.7649C417.435 83.9095 417.458 84.0612 417.455 84.2135V87.5582C417.466 87.6485 417.466 87.7398 417.455 87.8301C417.444 87.8796 417.415 87.9232 417.374 87.9525C417.073 88.0576 416.752 88.0854 416.438 88.0331C416.124 87.9808 415.829 87.8502 415.579 87.6533C414.733 87.1318 414.079 86.3492 413.716 85.4236V85.4236Z" fill="#FFBF19"/>
<path d="M516.897 135.661C516.755 135.122 516.44 134.644 516 134.302L509.202 130.386C508.617 130.046 508.168 130.712 508.168 131.909V137.021C508.176 137.727 508.305 138.426 508.549 139.088C508.647 139.353 508.77 139.608 508.916 139.849C509.05 140.075 509.231 140.27 509.446 140.42L516.245 144.336C516.829 144.662 517.291 143.996 517.291 142.799V137.728C517.279 137.022 517.146 136.323 516.897 135.661ZM508.821 138.721C508.717 138.433 508.667 138.129 508.672 137.823V132.752C508.672 131.868 509.039 131.324 509.46 131.583L516.258 135.498C516.376 135.568 516.474 135.666 516.544 135.784C516.588 135.862 516.624 135.944 516.652 136.029C516.756 136.321 516.807 136.629 516.802 136.94V141.997C516.802 142.881 516.435 143.425 516.013 143.167L509.215 139.251C509.015 139.119 508.873 138.914 508.821 138.68V138.721Z" fill="#FFBF19"/>
<path d="M513.09 134.546V140.542L509.447 138.381L509.324 138.285C509.332 138.218 509.332 138.149 509.324 138.081V133.527C509.324 132.888 509.61 132.48 509.922 132.657L513.09 134.546Z" fill="#FFBF19"/>
<path d="M517.618 137.918C517.876 138.054 518.08 139.02 518.08 140.053V140.991C518.08 142.038 517.876 142.786 517.618 142.664L517.156 142.446V137.66L517.618 137.918Z" fill="#FFBF19"/>
<path d="M500.799 133.5C500.799 134.615 500.215 135.186 499.44 134.764C499.014 134.436 498.67 134.013 498.434 133.53C498.198 133.046 498.077 132.515 498.08 131.977C498.08 130.862 498.665 130.305 499.44 130.712C499.867 131.04 500.213 131.462 500.449 131.946C500.685 132.429 500.805 132.961 500.799 133.5V133.5Z" fill="#FFBF19"/>
<path d="M499.481 127.408C499.224 127.224 498.926 127.104 498.613 127.059C498.301 127.013 497.981 127.044 497.683 127.148C497.384 127.252 497.115 127.426 496.898 127.656C496.681 127.886 496.522 128.165 496.435 128.469C496.383 128.648 496.368 128.835 496.392 129.02C496.415 129.205 496.476 129.383 496.571 129.543V129.543C496.816 129.978 497.183 130.087 497.333 129.733C497.387 129.514 497.496 129.312 497.648 129.146C497.8 128.979 497.991 128.853 498.205 128.779C498.418 128.705 498.646 128.685 498.869 128.721C499.092 128.757 499.302 128.848 499.481 128.985C500.571 129.763 501.336 130.915 501.629 132.221C501.778 132.738 502.146 133.064 502.404 132.901C502.512 132.776 502.582 132.622 502.607 132.459C502.631 132.295 502.607 132.128 502.54 131.977C502.101 130.136 501.015 128.515 499.481 127.408V127.408Z" fill="#FFBF19"/>
<path d="M499.481 124.173C499.104 123.897 498.671 123.71 498.212 123.625C497.754 123.539 497.282 123.558 496.832 123.679C496.382 123.801 495.964 124.022 495.611 124.326C495.258 124.63 494.977 125.01 494.79 125.437C494.726 125.622 494.702 125.819 494.721 126.013C494.74 126.208 494.8 126.396 494.899 126.566V126.566C495.13 127.001 495.483 127.109 495.647 126.797C495.797 126.448 496.025 126.137 496.313 125.888C496.6 125.639 496.94 125.458 497.308 125.359C497.675 125.26 498.06 125.244 498.434 125.314C498.807 125.384 499.161 125.538 499.467 125.763C501.334 127.08 502.688 129.001 503.301 131.202C503.464 131.691 503.818 132.004 504.049 131.841C504.266 131.705 504.307 131.27 504.158 130.835C503.405 128.145 501.754 125.795 499.481 124.173V124.173Z" fill="#FFBF19"/>
<path d="M383.696 20.0944C384.063 17.3752 386.184 16.4778 388.74 17.9598L528.957 98.9519C530.464 99.891 531.705 101.202 532.56 102.759L548.603 93.4998C547.739 91.9488 546.495 90.6434 544.987 89.7065L404.797 8.75522C403.216 7.95049 401.466 7.53101 399.692 7.53101C397.917 7.53101 396.168 7.95049 394.587 8.75522L388.74 12.1135C387.379 13.0073 386.225 14.1818 385.355 15.5583C384.485 16.9348 383.919 18.4814 383.696 20.0944V20.0944Z" fill="#4F46E5"/>
<path opacity="0.2" d="M383.696 20.0944C384.063 17.3752 386.184 16.4778 388.74 17.9598L528.957 98.9519C530.464 99.891 531.705 101.202 532.56 102.759L548.603 93.4998C547.739 91.9488 546.495 90.6434 544.987 89.7065L404.797 8.75522C403.216 7.95049 401.466 7.53101 399.692 7.53101C397.917 7.53101 396.168 7.95049 394.587 8.75522L388.74 12.1135C387.379 13.0073 386.225 14.1818 385.355 15.5583C384.485 16.9348 383.919 18.4814 383.696 20.0944V20.0944Z" fill="black"/>
<path d="M224.282 18.0141L84.0648 98.9518C82.5854 99.9248 81.3547 101.231 80.4716 102.766C79.5885 104.301 79.0776 106.021 78.9799 107.789V423.981C78.9799 427.23 81.264 428.563 84.0648 426.931L224.282 345.993C225.761 345.02 226.992 343.714 227.875 342.179C228.758 340.644 229.269 338.924 229.367 337.156V20.9509C229.367 17.7014 227.082 16.3826 224.282 18.0141ZM222.038 308.019C222.038 310.739 220.08 312.574 217.66 313.961L90.1831 387.557C87.7765 388.916 85.8051 387.829 85.8051 385.028V137.347C85.8892 135.828 86.3293 134.35 87.0898 133.032C87.8502 131.714 88.9098 130.594 90.1831 129.761L217.66 56.1785C220.08 54.8188 222.038 55.9065 222.038 58.6937V308.019Z" fill="#4F46E5"/>
<path opacity="0.5" d="M224.282 18.0141L84.0648 98.9518C82.5854 99.9248 81.3547 101.231 80.4716 102.766C79.5885 104.301 79.0776 106.021 78.9799 107.789V423.981C78.9799 427.23 81.264 428.563 84.0648 426.931L224.282 345.993C225.761 345.02 226.992 343.714 227.875 342.179C228.758 340.644 229.269 338.924 229.367 337.156V20.9509C229.367 17.7014 227.082 16.3826 224.282 18.0141ZM222.038 308.019C222.038 310.739 220.08 312.574 217.66 313.961L90.1831 387.557C87.7765 388.916 85.8051 387.829 85.8051 385.028V137.347C85.8892 135.828 86.3293 134.35 87.0898 133.032C87.8502 131.714 88.9098 130.594 90.1831 129.761L217.66 56.1785C220.08 54.8188 222.038 55.9065 222.038 58.6937V308.019Z" fill="black"/>
<path d="M83.4395 427.244C81.9248 427.883 80.2896 428.186 78.6465 428.132C77.0034 428.078 75.3916 427.668 73.9222 426.931L68.0894 423.559C66.5997 422.595 65.3597 421.291 64.4711 419.755C63.5824 418.219 63.0705 416.494 62.9773 414.722V98.544C63.0054 97.2275 63.3063 95.9312 63.861 94.7371C64.0385 94.3188 64.2382 93.9104 64.4593 93.5134L80.5027 102.772C80.1643 103.376 79.869 104.003 79.619 104.649C79.2377 105.658 79.0308 106.724 79.0071 107.803V423.994C78.9799 426.985 80.9242 428.345 83.4395 427.244Z" fill="#4F46E5"/>
<path opacity="0.7" d="M83.4395 427.244C81.9248 427.883 80.2896 428.186 78.6465 428.132C77.0034 428.078 75.3916 427.668 73.9222 426.931L68.0894 423.559C66.5997 422.595 65.3597 421.291 64.4711 419.755C63.5824 418.219 63.0705 416.494 62.9773 414.722V98.544C63.0054 97.2275 63.3063 95.9312 63.861 94.7371C64.0385 94.3188 64.2382 93.9104 64.4593 93.5134L80.5027 102.772C80.1643 103.376 79.869 104.003 79.619 104.649C79.2377 105.658 79.0308 106.724 79.0071 107.803V423.994C78.9799 426.985 80.9242 428.345 83.4395 427.244Z" fill="black"/>
<path d="M155.39 358.638C159.836 356.081 163.439 358.162 163.439 363.287C163.289 366.082 162.481 368.801 161.083 371.225C159.684 373.648 157.734 375.708 155.39 377.237C150.944 379.793 147.341 377.713 147.341 372.587C147.492 369.793 148.299 367.074 149.698 364.65C151.096 362.226 153.046 360.166 155.39 358.638V358.638Z" stroke="#E6E6E6" stroke-miterlimit="10"/>
<path d="M154.234 65.3015C156.111 64.2138 157.647 65.0976 157.647 67.273C157.58 68.4588 157.236 69.6124 156.644 70.6417C156.051 71.671 155.226 72.5474 154.234 73.2009C152.344 74.2886 150.808 73.4048 150.808 71.2158C150.873 70.0299 151.218 68.8762 151.813 67.8485C152.409 66.8208 153.238 65.9482 154.234 65.3015V65.3015Z" fill="black"/>
<path d="M140.978 86.0899L167.368 70.8487C168.945 69.9513 170.223 70.5904 170.223 72.2899C170.154 73.2496 169.86 74.1795 169.363 75.0039C168.867 75.8284 168.184 76.5242 167.368 77.0349L140.978 92.2626C139.401 93.1735 138.123 92.5345 138.123 90.8214C138.194 89.864 138.49 88.9369 138.986 88.1149C139.482 87.293 140.164 86.5993 140.978 86.0899V86.0899Z" fill="black"/>
<path d="M222.038 308.019C222.038 310.739 220.08 312.574 217.66 313.961L90.1831 387.557C87.7766 388.916 85.8052 387.829 85.8052 385.028V137.347C85.8893 135.828 86.3294 134.35 87.0898 133.032C87.8503 131.714 88.9099 130.594 90.1831 129.761L217.66 56.1785C220.08 54.8189 222.038 55.9066 222.038 58.6938V308.019Z" fill="#4F46E5"/>
<path opacity="0.9" d="M222.038 308.019C222.038 310.739 220.08 312.574 217.66 313.961L90.1831 387.557C87.7766 388.916 85.8052 387.829 85.8052 385.028V137.347C85.8893 135.828 86.3294 134.35 87.0898 133.032C87.8503 131.714 88.9099 130.594 90.1831 129.761L217.66 56.1785C220.08 54.8189 222.038 55.9066 222.038 58.6938V308.019Z" fill="white"/>
<path d="M188.864 88.85C188.864 89.9785 189.448 90.536 190.223 90.1145C190.643 89.7957 190.984 89.3847 191.22 88.9132C191.456 88.4417 191.58 87.9224 191.583 87.3952C191.583 86.2804 190.998 85.7093 190.223 86.1308C189.804 86.4496 189.463 86.8606 189.227 87.3321C188.991 87.8035 188.867 88.3229 188.864 88.85V88.85Z" fill="#FFBF19"/>
<path d="M187.124 87.3544C187.056 87.5054 187.033 87.6727 187.057 87.8364C187.081 88.0002 187.151 88.1537 187.259 88.2789V88.2789C187.518 88.4284 187.885 88.1021 188.034 87.5855C188.335 86.2822 189.098 85.1324 190.183 84.3496C190.362 84.212 190.574 84.1215 190.797 84.0863C191.021 84.051 191.25 84.0722 191.463 84.1478C191.677 84.2234 191.868 84.3511 192.019 84.5193C192.171 84.6875 192.278 84.8909 192.331 85.111C192.48 85.4509 192.847 85.3557 193.092 84.9071C193.189 84.7451 193.251 84.5648 193.275 84.3775C193.298 84.1903 193.282 84.0002 193.228 83.8194C193.14 83.5164 192.98 83.2392 192.762 83.0108C192.544 82.7825 192.275 82.6098 191.977 82.5072C191.678 82.4046 191.359 82.3752 191.047 82.4214C190.735 82.4675 190.439 82.5879 190.183 82.7725C188.645 83.8823 187.559 85.509 187.124 87.3544V87.3544Z" fill="#FFBF19"/>
<path d="M185.505 86.2124C185.356 86.6475 185.397 87.0825 185.614 87.2185C185.845 87.3681 186.199 87.0689 186.362 86.5795C186.982 84.3824 188.335 82.4634 190.196 81.141C190.503 80.9159 190.857 80.7631 191.232 80.694C191.607 80.6249 191.992 80.6413 192.359 80.7419C192.727 80.8426 193.066 81.0249 193.353 81.2753C193.64 81.5257 193.867 81.8377 194.017 82.1879C194.18 82.4871 194.533 82.3919 194.764 81.9568C194.86 81.7866 194.919 81.5977 194.935 81.403C194.952 81.2082 194.926 81.0122 194.86 80.8283C194.673 80.4026 194.393 80.0243 194.04 79.7214C193.687 79.4186 193.271 79.199 192.822 79.0789C192.373 78.9588 191.902 78.9412 191.445 79.0275C190.988 79.1138 190.557 79.3018 190.183 79.5775C187.914 81.1925 186.264 83.533 185.505 86.2124V86.2124Z" fill="#FFBF19"/>
<path d="M93.8677 144.906V142.894C93.8629 142.687 93.9057 142.481 93.9929 142.292C94.0801 142.103 94.2094 141.937 94.3707 141.807L94.5203 141.725C94.7922 141.562 95.0233 141.725 95.0233 142.214V144.227C95.0282 144.434 94.9853 144.64 94.8981 144.829C94.8109 145.017 94.6817 145.184 94.5203 145.314L94.3707 145.396C94.0852 145.559 93.8677 145.342 93.8677 144.906Z" fill="#FFBF19"/>
<path d="M96.1926 143.561V140.08C96.1878 139.872 96.2307 139.666 96.3179 139.478C96.4051 139.289 96.5343 139.123 96.6957 138.992L96.8452 138.911C97.1308 138.748 97.3619 138.911 97.3619 139.4V142.881C97.3651 143.09 97.3201 143.296 97.2306 143.485C97.141 143.674 97.0091 143.839 96.8452 143.969L96.6957 144.05C96.4238 144.213 96.1926 143.996 96.1926 143.561Z" fill="#FFBF19"/>
<path d="M98.4904 142.215V137.266C98.4893 137.059 98.5352 136.855 98.6247 136.669C98.7142 136.483 98.845 136.32 99.007 136.192L99.143 136.11C99.4285 135.947 99.6596 136.11 99.6596 136.599V141.535C99.6628 141.744 99.6179 141.95 99.5283 142.139C99.4387 142.328 99.3069 142.493 99.143 142.623L99.007 142.704C98.7487 142.867 98.4904 142.65 98.4904 142.215Z" fill="#FFBF19"/>
<path d="M100.856 140.869V132.33C100.853 132.125 100.897 131.922 100.984 131.736C101.071 131.55 101.2 131.386 101.359 131.256L101.509 131.175C101.794 131.012 102.025 131.175 102.025 131.664V140.189C102.03 140.397 101.987 140.603 101.9 140.791C101.813 140.98 101.684 141.146 101.522 141.277L101.373 141.358C101.087 141.521 100.856 141.304 100.856 140.869Z" fill="#FFBF19"/>
<path d="M107.165 137.81C107.165 137.81 107.165 137.687 107.165 137.565V136.314L104.541 137.823C104.405 137.905 104.337 137.823 104.337 137.674V137.225C104.329 137.144 104.329 137.062 104.337 136.98L104.432 136.722L107.151 130.631C107.19 130.546 107.235 130.464 107.287 130.386C107.341 130.33 107.4 130.28 107.464 130.237L107.831 130.033C107.94 129.96 108.021 129.96 108.076 130.033C108.109 130.12 108.109 130.217 108.076 130.305V134.669L108.66 134.343C108.769 134.275 108.837 134.261 108.891 134.343C108.946 134.424 108.891 134.465 108.891 134.601V134.9C108.915 135.008 108.915 135.119 108.891 135.226C108.835 135.318 108.755 135.394 108.66 135.444L108.076 135.784V137.021C108.087 137.135 108.063 137.249 108.007 137.349C107.951 137.449 107.866 137.529 107.763 137.579L107.328 137.823C107.287 137.823 107.205 137.837 107.165 137.81ZM107.26 135.09V131.963L105.37 136.178L107.26 135.09Z" fill="#FFBF19"/>
<path d="M110.265 135.253C109.748 134.873 109.503 134.057 109.503 132.806C109.486 131.651 109.747 130.508 110.265 129.475C110.755 128.532 111.505 127.749 112.426 127.218C112.754 127.024 113.106 126.873 113.473 126.769C113.739 126.686 114.023 126.686 114.289 126.769C114.297 126.784 114.302 126.8 114.302 126.817C114.302 126.834 114.297 126.85 114.289 126.865C114.299 126.914 114.299 126.965 114.289 127.014L114.044 127.694C114.044 127.789 114.044 127.843 113.949 127.857H113.84C113.362 127.811 112.881 127.931 112.481 128.197C111.85 128.569 111.337 129.111 110.999 129.761C110.625 130.526 110.443 131.37 110.468 132.221C110.468 133.187 110.645 133.812 110.985 134.071C111.325 134.329 111.814 134.302 112.413 133.962C112.637 133.829 112.851 133.679 113.052 133.513C113.243 133.366 113.417 133.198 113.568 133.01V130.984L112.481 131.61C112.372 131.678 112.29 131.691 112.25 131.61C112.218 131.526 112.218 131.435 112.25 131.351V131.066C112.223 130.954 112.223 130.838 112.25 130.726C112.306 130.634 112.385 130.559 112.481 130.508L114.221 129.516C114.343 129.434 114.425 129.434 114.479 129.516C114.534 129.597 114.561 129.665 114.561 129.829V132.724C114.57 132.815 114.57 132.906 114.561 132.996C114.538 133.071 114.501 133.14 114.452 133.2C113.907 133.957 113.201 134.584 112.386 135.036C111.502 135.552 110.727 135.661 110.265 135.253Z" fill="#FFBF19"/>
<path d="M209.856 70.0872C209.725 69.9494 209.549 69.8628 209.359 69.8429C209.17 69.823 208.98 69.871 208.823 69.9784L200.991 74.4787C200.608 74.7833 200.3 75.1727 200.093 75.6162C199.885 76.0597 199.783 76.5453 199.795 77.0348V81.4128C199.774 81.658 199.803 81.9048 199.88 82.1385C199.957 82.3722 200.081 82.5878 200.244 82.7724C200.358 82.89 200.505 82.9706 200.665 83.0035C200.877 83.0411 201.096 82.9974 201.277 82.8811L209.108 78.3672C209.492 78.0626 209.799 77.6733 210.007 77.2298C210.214 76.7863 210.316 76.3007 210.305 75.8112V71.4332C210.324 71.1903 210.294 70.9459 210.217 70.7147C210.14 70.4835 210.017 70.2701 209.856 70.0872V70.0872ZM200.529 82.1605C200.4 81.979 200.342 81.7565 200.366 81.5351V77.198C200.362 76.8263 200.442 76.4585 200.6 76.1219C200.757 75.7853 200.989 75.4886 201.277 75.2537L209.108 70.7398C209.205 70.6779 209.32 70.6493 209.435 70.6582H209.571C209.7 70.8398 209.758 71.0623 209.734 71.2837V75.6616C209.738 76.0333 209.658 76.4011 209.5 76.7377C209.342 77.0743 209.111 77.371 208.823 77.6059L200.991 82.1198C200.801 82.2557 200.638 82.2693 200.529 82.1605V82.1605Z" fill="#FFBF19"/>
<path d="M205.465 73.5814V78.7751L201.25 81.2088H201.114C201.121 81.1502 201.121 81.0908 201.114 81.0321V77.198C201.114 76.9226 201.176 76.6507 201.293 76.4016C201.411 76.1526 201.581 75.9324 201.794 75.7568L205.465 73.5814Z" fill="#FFBF19"/>
<path d="M210.699 71.2157C210.985 71.0526 211.216 71.6508 211.216 72.5754V73.3911C211.284 74.0908 211.096 74.7916 210.686 75.3626L210.169 75.7025V71.6236L210.699 71.2157Z" fill="#FFBF19"/>
<path d="M229.326 20.0944C228.959 17.3751 226.838 16.4778 224.282 17.9598L84.0648 98.9518C82.5574 99.891 81.3167 101.202 80.4619 102.759L64.4185 93.5134C65.2824 91.9624 66.527 90.657 68.035 89.7201L208.225 8.7552C209.804 7.95058 211.551 7.53113 213.323 7.53113C215.095 7.53113 216.843 7.95058 218.422 8.7552L224.282 12.1134C225.643 13.0072 226.797 14.1818 227.667 15.5583C228.537 16.9347 229.103 18.4814 229.326 20.0944Z" fill="#4F46E5"/>
<path opacity="0.2" d="M229.326 20.0944C228.959 17.3751 226.838 16.4778 224.282 17.9598L84.0648 98.9518C82.5574 99.891 81.3167 101.202 80.4619 102.759L64.4185 93.5134C65.2824 91.9624 66.527 90.657 68.035 89.7201L208.225 8.7552C209.804 7.95058 211.551 7.53113 213.323 7.53113C215.095 7.53113 216.843 7.95058 218.422 8.7552L224.282 12.1134C225.643 13.0072 226.797 14.1818 227.667 15.5583C228.537 16.9347 229.103 18.4814 229.326 20.0944Z" fill="black"/>
<path d="M487.489 324.076C487.489 324.076 472.955 338.624 453.635 333.063C453.635 333.063 459.454 338.801 473.145 334.953C482.377 332.356 487.489 324.076 487.489 324.076Z" fill="#4F46E5"/>
<path d="M516.34 234.913C516.34 234.913 523.763 254.083 510.901 269.501C510.901 269.501 518.502 266.51 520.514 252.425C521.833 242.88 516.34 234.913 516.34 234.913Z" fill="#4F46E5"/>
<path d="M485.98 330.181C499.576 316.19 505.49 299.861 505.626 283.179C505.626 283.179 509.583 293.104 503.41 308.767C497.237 324.43 485.98 330.181 485.98 330.181Z" fill="#4F46E5"/>
<path d="M110.904 309.95C110.904 309.95 110.727 330.507 128.239 340.392C128.239 340.392 120.081 340.256 113.283 327.802C108.592 319.399 110.904 309.95 110.904 309.95Z" fill="#4F46E5"/>
<path d="M106.471 318.189C103.449 300.798 107.422 282.916 117.525 268.441C117.525 268.441 108.579 274.274 104.609 290.643C100.639 307.013 106.471 318.189 106.471 318.189Z" fill="#4F46E5"/>
<path d="M411.011 203.642L416.762 186.443C401.616 189.162 397.496 191.229 393.023 203.751L390.059 213.73L371.922 269.556C367.626 270.684 314.138 285.423 312.276 285.654C312.276 285.654 312.194 285.79 312.14 285.858C294.669 286.973 289.026 287.748 289.026 287.748C293.935 300.582 303.139 307.815 315.852 310.426V310.127V310.222C338.353 306.388 375.267 297.686 387.272 293.703C392.33 292.085 394.491 286.388 396.572 281.629C405.069 262.2 413.947 236.014 416.966 220.256C418.924 210.766 416.055 206.021 411.011 203.642Z" fill="#B16668"/>
<path d="M416.762 186.375C416.762 186.375 401.711 184.063 395.185 197.877C390.807 207.204 377.415 247.149 377.415 247.149C377.415 247.149 386.932 259.386 407.775 260.134C407.775 260.134 427.462 214.927 426.361 213.485C425.26 212.044 416.762 186.375 416.762 186.375Z" fill="#37474F"/>
<path d="M414.002 186.089C410.344 186.443 401.072 198.842 400.881 219.944C400.623 248.21 414.478 282.812 417.958 290.276C421.439 297.741 428.21 312.356 439.712 323.206C443.424 326.687 468.767 336.544 485.096 318.189C501.71 299.522 499.086 274.994 495.769 267.313C490.208 254.451 480.378 239.481 480.732 222.554C478.651 210.399 474.668 194.668 465.585 188.074C461.846 187.123 450.072 185.613 447.774 185.926L414.002 186.089Z" fill="#FAFAFA"/>
<path d="M461.86 208.523L457.224 214.342C458.583 223.574 465.585 236.912 473.73 247.557C480.079 255.865 492.995 264.43 498.203 279.1C498.057 275.07 497.263 271.09 495.85 267.313C490.29 254.451 480.46 239.481 480.813 222.554C480.473 220.542 480.065 218.475 479.603 216.286L475.252 212.343L461.86 208.523Z" fill="#EBEBEB"/>
<path d="M465.585 188.074C473.539 190.032 477.822 194.233 484.783 202.187C492.778 211.161 509.093 230.032 509.093 230.032C520.5 249.801 510.249 269.909 501.697 266.606C501.697 266.606 482.417 247.775 470.589 233.499C462.662 223.982 458.624 218.543 458.175 208.061C457.795 199.822 459.263 191.406 465.585 188.074Z" fill="#B16668"/>
<path d="M461.425 187.327C461.425 187.327 468.291 185.804 477.224 192.996C486.156 200.189 507.992 223.955 507.992 223.955C507.992 223.955 508.644 249.121 492.614 260.474C492.614 260.474 468.957 236.735 463.124 228.523C459.067 222.482 456.761 215.436 456.461 208.165C456.161 200.894 457.879 193.681 461.425 187.327V187.327Z" fill="#37474F"/>
<path d="M457.224 139.74C457.224 139.74 453.77 160.828 452.152 164.336C451.066 166.511 449.181 168.182 446.891 168.999L446.551 154.356L457.224 139.74Z" fill="#263238"/>
<path d="M446.007 109.135C446.007 109.135 451.704 106.266 455.606 109.897C459.508 113.527 459.766 126.008 456.83 142.174L447.013 141.657L446.007 109.135Z" fill="#263238"/>
<path d="M415.884 156.006C430.756 153.064 440.427 138.622 437.485 123.75C434.543 108.877 420.102 99.2061 405.229 102.148C390.357 105.09 380.686 119.532 383.628 134.404C386.57 149.276 401.011 158.948 415.884 156.006Z" fill="#263238"/>
<path d="M446.823 111.27L455.32 103.466C454.835 102.883 454.237 102.405 453.561 102.061C452.886 101.716 452.148 101.513 451.392 101.462C450.635 101.411 449.877 101.514 449.161 101.765C448.446 102.016 447.789 102.41 447.23 102.922C446.102 103.994 445.429 105.459 445.353 107.014C445.277 108.569 445.804 110.093 446.823 111.27V111.27Z" fill="#263238"/>
<path d="M395.987 113.024C394.26 116.001 385.627 128.51 388.781 152.004C391.745 174.125 398.856 179.319 402.635 180.488C406.415 181.657 414.002 180.991 420.637 179.128L421.833 188.523C421.833 188.523 417.958 194.75 423.193 198.19C428.427 201.63 439.943 199.101 442.608 196.98C448.876 191.963 447.924 187.735 447.924 187.735L446.564 157.225C446.564 157.225 451.282 161.113 457.36 156.531C463.097 152.221 463.356 140.828 458.515 136.912C453.675 132.997 445.912 135.335 444.851 141.63C444.851 141.63 444.647 118.245 431.364 112.031C414.355 104.064 395.987 113.024 395.987 113.024Z" fill="#B16668"/>
<path d="M443.329 144.676C444.076 144.281 445.354 138.027 449.039 135.906C452.424 133.948 446.034 105.995 446.007 105.859C445.626 103.806 443.519 101.399 442.146 99.9036C440.071 97.7015 437.469 96.0639 434.586 95.145C430.623 93.935 426.429 93.6834 422.35 94.4108C416.014 95.3897 409.937 98.0274 403.533 98.0545C397.455 98.0545 391.65 95.7024 385.695 94.5196C384.555 94.1617 383.323 94.2442 382.241 94.7507C381.687 95.1337 381.253 95.6666 380.99 96.287C380.242 98.0866 380.174 100.097 380.8 101.943C381.453 103.77 382.369 105.493 383.519 107.055C381.398 106.063 378.407 105.981 377.184 107.966C376.218 109.53 376.816 111.569 377.7 113.173C381.425 119.863 388.047 122.799 395.008 124.39C397.933 124.886 400.892 125.159 403.859 125.206C411.364 125.627 418.57 122.623 425.491 119.686C427.394 118.87 431.106 117.483 433.186 119.169C435.769 121.263 435.647 128.034 436.422 133.595C437.605 142.31 440.501 146.198 443.329 144.676Z" fill="#263238"/>
<path d="M419.359 161.494L411.786 164.879C411.986 165.391 412.288 165.856 412.674 166.248C413.059 166.64 413.519 166.95 414.027 167.159C414.535 167.369 415.08 167.474 415.629 167.467C416.179 167.461 416.721 167.344 417.224 167.123C418.235 166.638 419.02 165.783 419.417 164.735C419.815 163.687 419.794 162.527 419.359 161.494V161.494Z" fill="#9A4A4D"/>
<path d="M392.166 143.425C392.221 143.974 392.436 144.496 392.785 144.924C393.133 145.352 393.6 145.669 394.128 145.833C394.655 145.998 395.219 146.004 395.749 145.851C396.28 145.697 396.754 145.391 397.111 144.97C397.469 144.549 397.695 144.033 397.761 143.484C397.827 142.936 397.731 142.38 397.483 141.886C397.236 141.393 396.849 140.982 396.37 140.707C395.891 140.432 395.342 140.304 394.791 140.338C394.034 140.401 393.333 140.761 392.841 141.339C392.349 141.918 392.106 142.668 392.166 143.425V143.425Z" fill="#263238"/>
<path d="M414.002 142.079C414.056 142.628 414.271 143.15 414.62 143.578C414.969 144.006 415.436 144.323 415.963 144.487C416.49 144.652 417.054 144.658 417.585 144.505C418.115 144.351 418.589 144.045 418.947 143.624C419.304 143.203 419.53 142.687 419.597 142.138C419.663 141.59 419.566 141.034 419.319 140.54C419.071 140.047 418.684 139.637 418.205 139.361C417.726 139.086 417.177 138.958 416.626 138.992C416.25 139.022 415.885 139.125 415.549 139.296C415.214 139.467 414.916 139.703 414.672 139.99C414.428 140.276 414.243 140.609 414.128 140.967C414.013 141.326 413.97 141.703 414.002 142.079Z" fill="#263238"/>
<path d="M406.605 142.677L406.102 159.55L397.224 156.776L406.605 142.677Z" fill="#9A4A4D"/>
<path d="M420.636 179.169C426.211 177.891 437.115 173.2 439.182 169.121C439.182 169.121 439.386 171.718 436.082 175.661C432.778 179.604 421.194 183.547 421.194 183.547L420.636 179.169Z" fill="#9A4A4D"/>
<path d="M389.95 137.565L396.245 134.845C395.856 134.003 395.156 133.344 394.293 133.004C393.429 132.665 392.468 132.672 391.609 133.024C391.196 133.206 390.825 133.47 390.517 133.8C390.208 134.13 389.97 134.518 389.815 134.942C389.66 135.366 389.592 135.816 389.616 136.267C389.639 136.718 389.753 137.159 389.95 137.565Z" fill="#263238"/>
<path d="M415.701 133.499L421.711 136.763C422.139 135.94 422.23 134.982 421.963 134.093C421.697 133.205 421.094 132.455 420.283 132.004C419.887 131.789 419.45 131.656 419.001 131.615C418.552 131.574 418.099 131.625 417.67 131.765C417.241 131.905 416.845 132.131 416.507 132.429C416.168 132.728 415.894 133.092 415.701 133.499V133.499Z" fill="#263238"/>
<path d="M234.737 183.547H187.885C176.697 183.543 165.968 179.105 158.047 171.205C150.126 163.304 145.66 152.586 145.628 141.399V134.043C145.606 123.25 149.872 112.889 157.488 105.24C165.104 97.5914 175.446 93.2803 186.24 93.2551H193.881C199.226 93.239 204.521 94.2767 209.465 96.3089C214.408 98.3411 218.903 101.328 222.691 105.098C226.479 108.869 229.487 113.349 231.542 118.283C233.598 123.217 234.66 128.508 234.669 133.853L234.737 183.547Z" fill="#263238"/>
<path d="M195.961 186.185C212.766 184.92 223.357 192.711 223.711 208.333C223.901 216.205 217.076 247.544 217.076 247.544L195.961 186.185Z" fill="#FFA8A7"/>
<path d="M195.961 186.184C204.513 187.041 213.948 201.643 222.161 220.419C225.383 227.816 231.27 237.768 223.846 251.609C219.251 260.161 209.788 263.614 209.788 263.614C206.362 274.343 201.417 284.525 195.104 293.852C191.161 306.408 183.987 317.708 174.302 326.619C170.495 329.99 147.232 350.589 128.483 334.695C117.334 325.245 113.446 310.222 114.588 296.041C115.254 287.707 117.103 279.467 122.963 273.499C126.342 270.061 129.464 266.38 132.304 262.486C135.281 248.305 131.869 238.679 131.515 221.697C133.595 209.542 138.748 199.237 147.831 192.656C154.557 189.994 161.632 188.314 168.837 187.666L195.961 186.184Z" fill="#4F46E5"/>
<path opacity="0.1" d="M195.675 293.009L194.533 283.859C194.533 283.859 155.104 222.051 153.432 220.311C152.453 219.264 142.99 212.955 135.594 208.074C133.658 212.413 132.287 216.982 131.515 221.67C131.869 238.597 135.281 248.224 132.304 262.459C132.304 262.459 130.278 265.327 127.001 269.094C132.848 270.616 142.378 263.261 142.378 263.261C142.378 263.261 161.413 290.168 169.788 299.726C177.606 308.686 182.283 310.018 188.061 309.624C191.035 304.659 193.399 299.355 195.104 293.825C195.308 293.567 195.485 293.281 195.675 293.009Z" fill="black"/>
<path opacity="0.05" d="M223.846 251.609C224.241 250.861 224.608 250.127 224.934 249.393C217.279 255.266 211.95 251.133 205.532 249.896C198.897 248.618 193.976 258.053 181.562 256.884C165.247 255.307 159.333 245.042 159.333 245.042C159.333 245.042 158.898 262.812 179.115 266.714C192.63 269.325 197.592 262.024 201.331 262.024C202.963 262.024 204.418 263.288 209.788 263.614C209.788 263.614 219.251 260.161 223.846 251.609Z" fill="black"/>
<path d="M219.264 115.267C220.95 118.177 229.326 130.318 226.266 153.119C223.384 174.587 216.477 178.081 212.806 179.223C209.135 180.365 201.78 179.699 195.335 177.864L193.881 190.78C193.881 190.78 200.135 199.672 198.897 205.518C197.66 211.364 185.165 210.617 177.334 203.887C172.62 199.749 169.599 194.016 168.85 187.789L170.21 158.149C170.21 158.149 165.628 161.929 159.727 157.483C154.166 153.295 153.908 142.242 158.612 138.448C163.316 134.655 170.849 136.912 171.868 143.017C171.868 143.017 186.443 146.389 199.346 140.298C215.811 132.575 218.218 121.385 219.264 115.267Z" fill="#FFA8A7"/>
<path d="M172.14 151.161L171.746 137.673C173.579 137.668 175.342 138.374 176.665 139.641C177.989 140.909 178.769 142.64 178.843 144.471C178.858 145.355 178.695 146.233 178.363 147.052C178.031 147.871 177.538 148.615 176.912 149.239C176.286 149.864 175.542 150.355 174.722 150.686C173.902 151.016 173.024 151.177 172.14 151.161V151.161Z" fill="#263238"/>
<path d="M201.617 163.37L208.959 166.661C208.762 167.154 208.469 167.602 208.096 167.98C207.723 168.358 207.278 168.657 206.787 168.86C206.297 169.063 205.771 169.165 205.24 169.161C204.709 169.157 204.184 169.046 203.697 168.836C202.71 168.371 201.943 167.542 201.555 166.523C201.167 165.503 201.189 164.374 201.617 163.37V163.37Z" fill="#F28F8F"/>
<path d="M222.963 144.975C222.963 145.346 222.888 145.713 222.741 146.054C222.595 146.395 222.38 146.703 222.109 146.957C221.839 147.212 221.52 147.409 221.171 147.536C220.822 147.662 220.451 147.716 220.08 147.694C219.345 147.632 218.665 147.28 218.188 146.717C217.711 146.154 217.478 145.424 217.538 144.689C217.585 143.968 217.916 143.295 218.459 142.818C218.728 142.582 219.041 142.401 219.38 142.286C219.719 142.171 220.077 142.123 220.434 142.147C220.791 142.17 221.14 142.263 221.461 142.421C221.782 142.579 222.069 142.799 222.305 143.068C222.541 143.337 222.722 143.65 222.837 143.989C222.952 144.327 223 144.685 222.976 145.043L222.963 144.975Z" fill="#263238"/>
<path d="M203.262 146.538C203.205 147.068 202.994 147.569 202.655 147.979C202.317 148.39 201.865 148.692 201.356 148.848C200.847 149.004 200.303 149.007 199.793 148.857C199.282 148.707 198.826 148.411 198.483 148.005C198.139 147.598 197.922 147.1 197.858 146.571C197.795 146.043 197.888 145.507 198.127 145.031C198.365 144.555 198.737 144.16 199.198 143.893C199.659 143.627 200.188 143.502 200.72 143.534C201.087 143.555 201.446 143.652 201.775 143.816C202.104 143.981 202.396 144.211 202.634 144.492C202.872 144.773 203.05 145.099 203.158 145.451C203.266 145.802 203.301 146.172 203.262 146.538Z" fill="#263238"/>
<path d="M211.148 144.798L211.637 161.181L220.257 158.489L211.148 144.798Z" fill="#F28F8F"/>
<path d="M195.335 177.809C189.897 176.572 179.346 172.017 177.334 168.061C177.334 168.061 177.144 170.59 180.353 174.41C183.561 178.231 194.86 181.997 194.86 181.997L195.335 177.809Z" fill="#F28F8F"/>
<path d="M223.833 137.673L217.728 135.036C218.108 134.22 218.787 133.582 219.625 133.253C220.463 132.924 221.395 132.929 222.228 133.268C222.629 133.445 222.99 133.701 223.289 134.021C223.588 134.341 223.819 134.717 223.969 135.129C224.119 135.54 224.184 135.978 224.161 136.415C224.137 136.852 224.026 137.28 223.833 137.673V137.673Z" fill="#263238"/>
<path d="M187.273 304.838L200.543 279.454C204.948 280.093 209.353 280.705 213.758 281.317C222.528 282.527 255.661 286.592 257.538 286.619C261.196 286.561 264.805 285.775 268.156 284.308C273.404 282.336 277.293 279.182 281.535 278.312C283.5 277.924 285.512 277.833 287.504 278.04C290.019 278.217 289.366 279.563 291.854 279.998C292.568 280.062 293.248 280.331 293.812 280.773C294.764 281.67 294.07 282.214 293.567 282.948C293.034 283.877 292.691 284.903 292.561 285.966C292.371 286.877 291.623 289.977 292.915 290.48C299.183 292.914 299.89 296.503 308.02 303.478C311.909 306.809 314.002 309.216 316.626 310.915C318.272 313.403 318.394 314.994 312.548 318.42C308.659 320.732 301.671 325.218 290.236 321.629C277.782 317.727 271.406 310.752 268.197 310.603C245.437 309.325 199.659 307.435 187.273 304.838Z" fill="#FFA8A7"/>
<path d="M200.543 279.454L167.015 224.485C167.015 224.485 161.508 193.771 147.844 192.71C147.844 192.71 135.336 195.933 132.481 203.438C129.041 212.52 129.204 221.412 139.469 241.507C147.219 256.735 168.225 285.436 176.627 295.157C180.026 299.086 183.738 303.696 187.273 304.783" fill="#FFA8A7"/>
<path d="M268.605 310.643C269.89 310.967 271.088 311.57 272.113 312.411C274.21 312.034 276.165 311.094 277.769 309.691C284.05 305.11 305.641 314.314 300.324 320.228C296.463 324.525 292.697 325.667 286.538 323.75C277.456 320.976 267.775 316.829 268.605 310.643Z" fill="#B16668"/>
<path d="M289.543 278.801C282.391 280.038 274.968 285.259 271.093 286.836C267.218 288.414 263.221 289.352 266.783 292.764C270.345 296.177 279.019 292.764 285.015 290.643C289.094 289.175 294.247 290.643 296.545 291.595C298.231 292.289 297.333 287.734 297.333 287.734C295.974 285.749 312.847 287.734 312.289 285.776C303.37 286.157 295.308 277.482 289.543 278.801Z" fill="#B16668"/>
</svg>
