<svg width="480" height="480" viewBox="0 0 480 480" fill="none" xmlns="http://www.w3.org/2000/svg">
<rect width="480" height="480" rx="25" fill="#4F46E5"/>
<path d="M182 320V160H215.887V230.547H218L275.678 160H316.296L256.817 231.641L317 320H276.461L232.557 254.219L215.887 274.531V320H182Z" fill="white"/>
<path d="M353.137 126.863L358.631 155.203L380.427 136.275L353.137 126.863ZM259.091 398.857L258.793 396.375L258.793 396.375L259.091 398.857ZM147.729 367.642C146.61 366.833 145.048 367.084 144.239 368.203C143.43 369.322 143.681 370.885 144.8 371.694L147.729 367.642ZM365.888 145.35C385.012 170.786 396.093 201.579 397.375 233.722L402.371 233.523C401.048 200.359 389.616 168.588 369.884 142.345L365.888 145.35ZM397.375 233.722C398.953 273.291 385.568 312.002 359.886 342.144L363.692 345.387C390.19 314.287 403.999 274.348 402.371 233.523L397.375 233.722ZM359.886 342.144C334.204 372.287 298.11 391.65 258.793 396.375L259.39 401.339C299.955 396.464 337.195 376.487 363.692 345.387L359.886 342.144ZM258.793 396.375C219.476 401.1 179.822 390.841 147.729 367.642L144.8 371.694C177.912 395.63 218.825 406.214 259.39 401.339L258.793 396.375Z" fill="#2A2688"/>
<path d="M326.367 108.292C327.522 109.049 329.071 108.727 329.828 107.572C330.586 106.418 330.263 104.868 329.109 104.111L326.367 108.292ZM216.835 81.6857L217.197 84.1594L216.835 81.6857ZM117.606 136.948L115.694 135.338L115.694 135.338L117.606 136.948ZM80.0536 244.14L77.5544 244.205L80.0536 244.14ZM123.101 349.246L118.57 320.736L96.1454 338.915L123.101 349.246ZM329.109 104.111C295.872 82.3159 255.8 73.4578 216.474 79.2121L217.197 84.1594C255.314 78.5822 294.153 87.1677 326.367 108.292L329.109 104.111ZM216.474 79.2121C177.147 84.9663 141.293 104.934 115.694 135.338L119.519 138.558C144.33 109.09 179.081 89.7366 217.197 84.1594L216.474 79.2121ZM115.694 135.338C90.0948 165.741 76.526 204.473 77.5544 244.205L82.5527 244.075C81.556 205.566 94.7072 168.026 119.519 138.558L115.694 135.338ZM77.5544 244.205C78.3844 276.272 88.6762 307.196 106.883 333.2L110.979 330.332C93.3322 305.128 83.3572 275.155 82.5527 244.075L77.5544 244.205Z" fill="#2A2688"/>
</svg>
